<?xml version="1.0" standalone="no"?>
<!DOCTYPE svg PUBLIC "-//W3C//DTD SVG 20010904//EN"
 "http://www.w3.org/TR/2001/REC-SVG-20010904/DTD/svg10.dtd">
<svg version="1.0" xmlns="http://www.w3.org/2000/svg"
 width="600.000000pt" height="600.000000pt" viewBox="0 0 600.000000 600.000000"
 preserveAspectRatio="xMidYMid meet">

<g transform="translate(0.000000,600.000000) scale(0.100000,-0.100000)"
fill="#000000" stroke="none">
<path d="M0 3000 l0 -3000 2250 0 c1493 0 2250 3 2250 10 0 6 -9 10 -20 10
-26 0 -25 8 2 31 11 11 18 22 13 27 -4 4 -10 1 -12 -5 -3 -7 -13 -13 -24 -13
-10 0 -19 -4 -19 -10 0 -5 -4 -10 -10 -10 -5 0 -10 14 -10 30 0 23 -4 30 -20
30 -13 0 -20 7 -20 20 0 11 -4 20 -10 20 -15 0 -13 137 2 144 11 5 11 7 0 12
-16 7 -16 61 0 68 10 5 11 7 1 12 -18 8 -16 32 4 52 12 12 18 13 21 4 2 -6 12
-12 22 -12 10 0 20 -6 23 -12 2 -7 8 -9 13 -5 5 4 2 12 -6 18 -13 8 -13 10 0
20 11 8 12 12 3 16 -13 5 -19 43 -7 43 11 0 34 -29 34 -44 0 -9 5 -16 10 -16
6 0 10 9 10 19 0 11 6 22 13 25 10 5 9 7 0 12 -7 3 -13 10 -13 15 0 14 30 10
47 -6 14 -14 13 -18 -7 -35 l-23 -20 21 -19 c12 -10 22 -26 22 -35 0 -9 5 -16
10 -16 6 0 10 9 10 20 0 22 16 27 23 8 3 -9 12 -5 26 12 18 20 24 22 31 10 5
-8 12 -11 16 -7 4 4 -3 15 -14 26 -27 23 -28 31 -2 31 11 0 20 -4 20 -10 0 -5
9 -10 20 -10 22 0 27 -16 7 -23 -7 -2 -8 -8 -3 -13 5 -5 11 -4 13 4 7 17 23
15 23 -4 0 -20 29 -49 38 -39 4 4 1 10 -6 12 -6 3 -12 12 -12 20 0 9 -9 24
-21 34 -19 16 -20 20 -6 34 17 16 47 20 47 6 0 -5 -6 -12 -13 -15 -9 -5 -9 -7
1 -12 6 -3 12 -14 12 -25 0 -12 7 -19 20 -19 26 0 25 8 -1 31 -19 16 -20 20
-6 34 9 8 23 15 31 15 9 0 16 8 16 20 0 11 5 20 10 20 6 0 10 -9 10 -20 0 -11
5 -20 10 -20 6 0 10 9 10 20 0 11 5 20 10 20 6 0 10 -9 10 -20 0 -11 5 -20 10
-20 6 0 10 9 10 20 0 11 5 20 10 20 6 0 10 -9 10 -20 0 -11 5 -20 10 -20 6 0
10 9 10 20 0 11 -4 20 -10 20 -18 0 -10 31 15 55 29 30 35 31 35 5 0 -11 5
-20 10 -20 6 0 10 -9 10 -20 0 -11 5 -20 10 -20 6 0 10 -4 10 -10 0 -5 -9 -10
-20 -10 -16 0 -20 7 -20 30 0 23 -4 30 -20 30 -27 0 -25 -26 5 -55 30 -30 42
-31 66 -4 16 19 20 20 34 6 16 -17 20 -47 6 -47 -5 0 -11 6 -13 12 -3 9 -9 8
-21 -4 -20 -20 -22 -45 -5 -50 15 -5 -13 -38 -32 -38 -6 0 -18 -7 -27 -15 -13
-14 -11 -18 16 -44 19 -18 31 -39 31 -55 0 -14 5 -26 10 -26 15 0 12 -57 -3
-64 -9 -5 -9 -7 1 -12 16 -7 16 -61 -1 -68 -9 -5 -9 -7 1 -12 7 -3 12 -25 12
-55 0 -27 5 -49 10 -49 6 0 10 50 10 130 0 80 4 130 10 130 6 0 10 11 10 25 0
35 68 104 82 84 7 -11 11 -11 15 -1 2 6 13 12 24 12 10 0 19 5 19 10 0 14 38
12 43 -2 2 -7 8 -10 12 -6 4 4 -5 19 -19 33 l-27 27 -19 -23 -20 -22 -20 23
c-11 13 -23 20 -27 16 -4 -4 -1 -11 6 -16 12 -7 11 -11 -4 -27 -13 -13 -20
-14 -23 -5 -6 19 -22 14 -22 -8 0 -23 -34 -28 -44 -7 -5 9 -7 9 -12 0 -6 -13
-44 -19 -44 -7 0 3 15 20 33 37 20 19 27 32 19 34 -12 5 -18 43 -6 43 3 0 19
-14 35 -31 16 -18 32 -29 36 -25 3 3 -4 14 -15 25 -12 10 -22 21 -22 25 0 12
38 6 43 -6 4 -10 8 -9 16 2 8 12 13 11 31 -9 11 -14 23 -21 27 -17 4 4 1 12
-7 17 -11 8 -12 12 -2 16 6 2 12 13 12 24 0 21 15 26 24 7 5 -10 7 -10 12 0 3
6 19 12 35 12 16 0 29 5 29 10 0 15 -58 12 -62 -2 -3 -9 -9 -8 -22 5 -17 16
-17 18 0 34 13 13 19 14 22 5 5 -16 39 -16 44 0 3 8 15 2 32 -15 l28 -28 -23
-20 c-12 -10 -19 -22 -16 -25 4 -4 20 8 37 26 28 30 31 31 46 15 14 -14 15
-18 3 -25 -11 -7 -8 -13 11 -30 20 -17 22 -23 10 -30 -8 -5 -11 -12 -8 -16 10
-9 38 21 38 40 0 9 -8 16 -20 16 -11 0 -20 5 -20 10 0 6 9 10 20 10 11 0 20 5
20 10 0 6 9 10 20 10 11 0 20 -4 20 -10 0 -5 -4 -10 -10 -10 -5 0 -10 -9 -10
-20 0 -11 5 -20 10 -20 6 0 10 8 10 18 0 10 9 24 20 32 11 8 20 22 20 32 0 10
5 18 10 18 19 0 10 -53 -12 -72 -19 -16 -20 -21 -8 -29 13 -8 13 -10 0 -18 -8
-6 -11 -14 -6 -18 5 -4 11 -2 13 5 5 14 43 16 43 2 0 -5 -4 -10 -10 -10 -15 0
-12 -30 6 -47 13 -14 17 -14 25 -2 8 12 10 12 18 -1 6 -8 14 -11 18 -6 4 5 2
11 -4 13 -17 6 -17 40 0 46 6 2 8 8 4 13 -4 5 -12 2 -17 -6 -7 -12 -12 -11
-28 8 -11 12 -27 22 -36 22 -20 0 -20 7 1 28 12 12 18 13 21 4 2 -6 12 -12 23
-12 10 0 19 -4 19 -10 0 -5 9 -10 19 -10 11 0 21 -6 24 -12 2 -8 8 -9 13 -4 5
5 4 11 -3 13 -24 9 -13 23 17 23 30 0 41 -14 18 -23 -7 -2 -10 -8 -6 -12 4 -4
15 1 25 11 13 12 14 19 5 22 -19 6 -14 22 8 22 13 0 20 -7 20 -18 0 -10 9 -24
20 -32 22 -16 27 -46 8 -53 -7 -2 -9 -8 -5 -13 4 -5 12 -2 18 6 8 13 10 13 18
1 7 -11 14 -9 35 12 14 14 26 33 26 42 0 8 9 15 20 15 11 0 20 5 20 10 0 6 5
10 10 10 6 0 10 -13 10 -29 0 -16 6 -32 13 -34 9 -4 8 -8 -3 -16 -13 -10 -13
-12 0 -20 12 -8 11 -13 -9 -30 -22 -19 -22 -21 -7 -37 9 -9 20 -13 24 -10 3 4
0 11 -8 16 -12 7 -10 13 10 30 20 18 22 23 10 31 -13 8 -13 10 0 20 11 8 12
12 3 16 -7 2 -13 18 -13 34 0 22 5 29 20 29 11 0 20 5 20 10 0 6 -9 10 -20 10
-11 0 -20 5 -20 10 0 6 9 10 20 10 11 0 20 5 20 10 0 6 -9 10 -20 10 -16 0
-20 7 -20 30 0 23 4 30 20 30 11 0 20 5 20 10 0 6 -9 10 -20 10 -26 0 -26 12
0 30 22 16 27 65 8 74 -10 5 -10 7 0 12 6 3 12 14 12 24 0 10 -6 21 -12 23
-10 4 -9 8 2 16 13 10 13 12 0 22 -11 8 -12 12 -3 16 10 4 13 530 13 2584 l0
2579 -2649 0 c-2110 0 -2651 -3 -2655 -12 -5 -10 -7 -10 -12 0 -4 9 -83 12
-345 12 l-339 0 0 -3000z m2140 2924 c0 -8 -4 -12 -10 -9 -5 3 -10 10 -10 16
0 5 5 9 10 9 6 0 10 -7 10 -16z m460 6 c0 -5 -4 -10 -10 -10 -5 0 -10 5 -10
10 0 6 5 10 10 10 6 0 10 -4 10 -10z m2020 0 c0 -5 -4 -10 -10 -10 -5 0 -10 5
-10 10 0 6 5 10 10 10 6 0 10 -4 10 -10z m-3180 -20 c0 -5 -4 -10 -10 -10 -5
0 -10 5 -10 10 0 6 5 10 10 10 6 0 10 -4 10 -10z m2560 -40 c0 -5 -4 -10 -10
-10 -5 0 -10 5 -10 10 0 6 5 10 10 10 6 0 10 -4 10 -10z m460 0 c0 -5 -4 -10
-10 -10 -5 0 -10 5 -10 10 0 6 5 10 10 10 6 0 10 -4 10 -10z m-1574 -11 c10
-17 -13 -36 -27 -22 -12 12 -4 33 11 33 5 0 12 -5 16 -11z m454 -9 c0 -5 -4
-10 -10 -10 -5 0 -10 5 -10 10 0 6 5 10 10 10 6 0 10 -4 10 -10z m120 -9 c0
-11 5 -21 10 -23 7 -2 6 -13 -2 -30 -15 -33 -28 -36 -28 -8 0 13 -7 20 -20 20
-11 0 -20 5 -20 10 0 6 9 10 20 10 13 0 20 7 20 20 0 11 5 20 10 20 6 0 10 -9
10 -19z m-1300 -51 c0 -5 -4 -10 -10 -10 -5 0 -10 5 -10 10 0 6 5 10 10 10 6
0 10 -4 10 -10z m120 -9 c0 -11 6 -22 13 -25 10 -5 10 -7 0 -12 -7 -3 -13 -14
-13 -25 0 -10 -4 -19 -10 -19 -5 0 -10 9 -10 20 0 13 -7 20 -20 20 -11 0 -20
5 -20 10 0 6 9 10 20 10 13 0 20 7 20 20 0 11 5 20 10 20 6 0 10 -9 10 -19z
m3040 0 c0 -11 6 -22 13 -25 10 -5 10 -7 0 -12 -7 -3 -13 -14 -13 -25 0 -10
-4 -19 -10 -19 -5 0 -10 9 -10 20 0 13 -7 20 -20 20 -11 0 -20 5 -20 10 0 6 9
10 20 10 13 0 20 7 20 20 0 11 5 20 10 20 6 0 10 -9 10 -19z m-1120 -20 c0
-11 6 -22 13 -25 10 -5 10 -7 0 -12 -7 -3 -13 -14 -13 -25 0 -10 -4 -19 -10
-19 -5 0 -10 9 -10 20 0 13 -7 20 -20 20 -11 0 -20 5 -20 10 0 6 9 10 20 10
13 0 20 7 20 20 0 11 5 20 10 20 6 0 10 -9 10 -19z m-3404 -86 l25 -25 -26
-25 -25 -26 -25 25 -26 26 23 24 c13 14 24 25 26 25 2 1 14 -10 28 -24z m4320
0 l25 -25 -26 -25 -25 -26 -25 25 -26 26 23 24 c13 14 24 25 26 25 2 1 14 -10
28 -24z m-4996 -125 c0 -5 -4 -10 -10 -10 -5 0 -10 5 -10 10 0 6 5 10 10 10 6
0 10 -4 10 -10z m4720 0 c0 -5 -4 -10 -10 -10 -5 0 -10 5 -10 10 0 6 5 10 10
10 6 0 10 -4 10 -10z m-2860 -60 c0 -5 -4 -10 -10 -10 -5 0 -10 5 -10 10 0 6
5 10 10 10 6 0 10 -4 10 -10z m-1120 -20 c0 -5 -4 -10 -10 -10 -5 0 -10 5 -10
10 0 6 5 10 10 10 6 0 10 -4 10 -10z m20 -40 c0 -5 -4 -10 -10 -10 -5 0 -10 5
-10 10 0 6 5 10 10 10 6 0 10 -4 10 -10z m540 0 c0 -5 -4 -10 -10 -10 -5 0
-10 5 -10 10 0 6 5 10 10 10 6 0 10 -4 10 -10z m2460 0 c0 -5 -4 -10 -10 -10
-5 0 -10 5 -10 10 0 6 5 10 10 10 6 0 10 -4 10 -10z m-3280 -25 c0 -7 7 -18
16 -23 14 -8 14 -10 0 -21 -9 -8 -16 -20 -16 -27 0 -21 -17 -17 -23 6 -3 11
-12 20 -21 20 -23 0 -20 17 4 23 11 3 20 12 20 21 0 9 5 16 10 16 6 0 10 -7
10 -15z m3000 -4 c0 -11 6 -22 13 -25 10 -5 10 -7 0 -12 -7 -3 -13 -14 -13
-25 0 -10 -4 -19 -10 -19 -5 0 -10 9 -10 20 0 13 -7 20 -20 20 -11 0 -20 5
-20 10 0 6 9 10 20 10 13 0 20 7 20 20 0 11 5 20 10 20 6 0 10 -9 10 -19z
m-314 -22 c10 -17 -13 -36 -27 -22 -12 12 -4 33 11 33 5 0 12 -5 16 -11z
m-546 -9 c0 -5 -4 -10 -10 -10 -5 0 -10 5 -10 10 0 6 5 10 10 10 6 0 10 -4 10
-10z m-1120 -20 c0 -5 -4 -10 -10 -10 -5 0 -10 5 -10 10 0 6 5 10 10 10 6 0
10 -4 10 -10z m550 6 c0 -2 -7 -9 -15 -16 -12 -10 -15 -10 -15 4 0 9 7 16 15
16 8 0 15 -2 15 -4z m290 -14 c0 -10 5 -23 12 -30 9 -9 9 -12 0 -12 -7 0 -12
-9 -12 -20 0 -11 -4 -20 -10 -20 -5 0 -10 9 -10 20 0 13 -7 20 -20 20 -11 0
-20 5 -20 10 0 6 9 10 20 10 13 0 20 7 20 20 0 11 5 20 10 20 6 0 10 -8 10
-18z m-1120 -21 c0 -11 6 -22 13 -25 10 -5 10 -7 0 -12 -7 -3 -13 -14 -13 -25
0 -10 -4 -19 -10 -19 -5 0 -10 9 -10 20 0 13 -7 20 -20 20 -11 0 -20 5 -20 10
0 6 9 10 20 10 13 0 20 7 20 20 0 11 5 20 10 20 6 0 10 -9 10 -19z m1800 -51
c0 -5 -4 -10 -10 -10 -5 0 -10 5 -10 10 0 6 5 10 10 10 6 0 10 -4 10 -10z
m-2600 -20 c0 -5 -4 -10 -10 -10 -5 0 -10 5 -10 10 0 6 5 10 10 10 6 0 10 -4
10 -10z m1579 -16 l23 -27 -27 -25 -27 -25 -24 26 c-20 22 -37 63 -17 44 3 -4
12 2 20 13 18 26 25 25 52 -6z m-716 -6 c4 -10 8 -9 16 2 10 13 12 13 21 0 9
-13 11 -13 21 0 8 11 12 12 16 3 2 -7 13 -13 24 -13 10 0 19 -4 19 -10 0 -5
18 -10 40 -10 33 0 40 -3 40 -20 0 -22 16 -27 22 -8 3 8 15 2 32 -15 16 -16
25 -31 22 -34 -3 -4 -15 4 -26 17 l-20 23 -20 -23 c-17 -19 -21 -20 -34 -7
-11 10 -12 17 -4 25 7 7 9 15 5 18 -4 4 -16 -3 -27 -16 -11 -13 -23 -20 -27
-16 -4 4 -1 11 7 16 8 5 11 12 7 17 -5 4 -12 1 -18 -7 -8 -13 -10 -13 -18 -1
-7 11 -14 9 -36 -13 -15 -15 -24 -30 -21 -34 4 -3 11 0 16 8 8 13 12 12 24 -5
17 -23 21 -49 6 -40 -5 3 -10 13 -10 21 0 8 -4 14 -8 14 -12 0 -49 -45 -55
-67 -4 -16 -6 -16 -12 5 -4 12 -10 22 -13 22 -4 0 -24 -19 -45 -42 -29 -32
-40 -39 -47 -29 -6 11 -14 8 -35 -14 -21 -20 -25 -29 -15 -35 11 -7 10 -12 -4
-25 -9 -10 -20 -14 -24 -11 -3 4 0 11 8 17 13 8 13 10 0 19 -13 9 -13 11 0 19
8 6 12 13 8 16 -7 7 -42 -11 -72 -38 -15 -13 -22 -14 -27 -5 -5 7 -11 9 -15 5
-4 -3 -1 -13 6 -22 10 -12 10 -18 0 -30 -7 -9 -10 -19 -6 -22 4 -4 11 -1 16 6
7 12 11 11 25 -3 10 -9 14 -20 11 -24 -4 -3 -11 0 -16 8 -7 12 -12 10 -29 -9
-19 -22 -21 -22 -37 -7 -9 9 -13 20 -10 24 4 3 11 0 16 -8 5 -8 12 -11 16 -8
3 4 -1 15 -11 24 -15 15 -18 15 -32 1 -14 -14 -13 -17 6 -38 11 -13 21 -28 21
-35 0 -7 6 -14 12 -16 9 -3 8 -9 -5 -22 -16 -16 -18 -16 -33 -1 -9 9 -13 19
-10 23 4 3 11 0 16 -8 5 -8 12 -11 16 -8 3 4 -1 15 -11 24 -15 16 -17 16 -33
0 -16 -16 -14 -20 27 -57 24 -22 41 -42 39 -44 -3 -3 -19 9 -37 26 -18 17 -35
28 -39 25 -3 -4 -1 -11 5 -17 16 -16 -7 -41 -25 -27 -7 6 -16 8 -19 4 -4 -4
-3 -10 2 -14 6 -4 16 -18 23 -30 12 -22 12 -23 -6 -18 -24 8 -61 -28 -39 -37
8 -3 17 -15 20 -27 5 -21 5 -21 -13 -5 -15 14 -21 14 -39 3 -12 -7 -21 -16
-21 -21 0 -4 -4 -6 -10 -2 -5 3 -7 11 -5 18 3 7 -2 21 -11 32 -12 16 -16 17
-23 6 -12 -19 -30 -5 -24 19 5 17 8 18 21 8 12 -10 14 -10 8 0 -4 6 -2 12 3
12 6 0 11 5 11 11 0 5 -4 7 -10 4 -5 -3 -10 0 -10 7 0 7 -8 1 -17 -12 -10 -14
-17 -28 -16 -32 2 -4 -4 -5 -12 -2 -8 4 -15 1 -15 -5 0 -6 4 -11 9 -11 5 0 11
-9 14 -19 3 -14 -2 -21 -16 -25 -12 -3 -24 -1 -27 5 -4 5 -14 7 -23 3 -9 -3
-17 -2 -17 4 0 6 5 12 12 14 6 2 11 21 10 45 -1 29 3 43 14 47 10 4 14 12 10
22 -4 9 -1 23 5 30 8 10 8 14 0 14 -6 0 -11 9 -11 20 0 11 5 20 10 20 6 0 10
-5 10 -11 0 -5 5 -7 11 -3 8 4 7 9 -2 15 -12 7 -12 12 -1 29 7 11 10 25 7 30
-4 6 1 13 9 16 9 3 16 15 16 25 0 10 5 19 10 19 6 0 10 7 10 15 0 8 29 43 64
79 35 36 61 67 59 70 -9 9 27 38 41 33 8 -3 31 10 52 29 26 25 40 31 45 23 5
-9 17 -3 39 21 19 20 34 30 38 23 11 -17 62 -22 62 -6 0 10 10 12 35 10 20 -3
43 2 52 9 23 17 30 17 36 2z m2697 -18 c0 -5 -4 -10 -10 -10 -5 0 -10 5 -10
10 0 6 5 10 10 10 6 0 10 -4 10 -10z m-2120 -20 c0 -5 -4 -10 -10 -10 -5 0
-10 5 -10 10 0 6 5 10 10 10 6 0 10 -4 10 -10z m460 0 c0 -5 -4 -10 -10 -10
-5 0 -10 5 -10 10 0 6 5 10 10 10 6 0 10 -4 10 -10z m2020 0 c0 -5 -4 -10 -10
-10 -5 0 -10 5 -10 10 0 6 5 10 10 10 6 0 10 -4 10 -10z m-2952 -50 c7 -11 10
-20 6 -20 -7 0 -34 27 -34 34 0 13 16 5 28 -14z m212 10 c0 -5 -6 -10 -14 -10
-8 0 -18 5 -21 10 -3 6 3 10 14 10 12 0 21 -4 21 -10z m2340 0 c0 -5 -4 -10
-10 -10 -5 0 -10 5 -10 10 0 6 5 10 10 10 6 0 10 -4 10 -10z m600 0 c0 -5 -4
-10 -10 -10 -5 0 -10 5 -10 10 0 6 5 10 10 10 6 0 10 -4 10 -10z m180 -20 c0
-5 -4 -10 -10 -10 -5 0 -10 5 -10 10 0 6 5 10 10 10 6 0 10 -4 10 -10z m-2120
-20 c0 -5 -4 -10 -10 -10 -5 0 -10 5 -10 10 0 6 5 10 10 10 6 0 10 -4 10 -10z
m-1120 -20 c0 -5 -4 -10 -10 -10 -5 0 -10 5 -10 10 0 6 5 10 10 10 6 0 10 -4
10 -10z m-60 -20 c0 -5 -4 -10 -10 -10 -5 0 -10 5 -10 10 0 6 5 10 10 10 6 0
10 -4 10 -10z m2500 -49 c0 -11 6 -22 13 -25 10 -5 10 -7 0 -12 -7 -3 -13 -14
-13 -25 0 -10 -4 -19 -10 -19 -5 0 -10 9 -10 20 0 13 -7 20 -20 20 -11 0 -20
5 -20 10 0 6 9 10 20 10 13 0 20 7 20 20 0 11 5 20 10 20 6 0 10 -9 10 -19z
m1620 -31 c0 -5 -4 -10 -10 -10 -5 0 -10 5 -10 10 0 6 5 10 10 10 6 0 10 -4
10 -10z m-4820 -20 c0 -5 -9 -10 -20 -10 -11 0 -20 5 -20 10 0 6 9 10 20 10
11 0 20 -4 20 -10z m5020 0 c0 -5 -4 -10 -10 -10 -5 0 -10 5 -10 10 0 6 5 10
10 10 6 0 10 -4 10 -10z m-4680 -40 c0 -5 -4 -10 -10 -10 -5 0 -10 5 -10 10 0
6 5 10 10 10 6 0 10 -4 10 -10z m480 -29 c0 -11 6 -22 13 -25 10 -5 10 -7 0
-12 -7 -3 -13 -14 -13 -25 0 -10 -4 -19 -10 -19 -5 0 -10 9 -10 19 0 11 -6 22
-12 25 -10 5 -10 7 0 12 6 3 12 14 12 25 0 10 5 19 10 19 6 0 10 -9 10 -19z
m1020 9 c0 -5 -4 -10 -10 -10 -5 0 -10 5 -10 10 0 6 5 10 10 10 6 0 10 -4 10
-10z m-2140 -29 c0 -11 6 -22 13 -25 10 -5 10 -7 0 -12 -7 -3 -13 -14 -13 -25
0 -10 -4 -19 -10 -19 -5 0 -10 9 -10 19 0 11 -6 22 -12 25 -10 5 -10 7 0 12 6
3 12 14 12 25 0 10 5 19 10 19 6 0 10 -9 10 -19z m700 9 c0 -5 -4 -10 -10 -10
-5 0 -10 5 -10 10 0 6 5 10 10 10 6 0 10 -4 10 -10z m320 0 c0 -5 -4 -10 -10
-10 -5 0 -10 5 -10 10 0 6 5 10 10 10 6 0 10 -4 10 -10z m-380 -96 c0 -8 -4
-12 -10 -9 -5 3 -10 13 -10 21 0 8 5 12 10 9 6 -3 10 -13 10 -21z m-20 -24 c0
-5 -4 -10 -10 -10 -5 0 -10 5 -10 10 0 6 5 10 10 10 6 0 10 -4 10 -10z m-460
-40 c0 -5 -4 -10 -10 -10 -5 0 -10 5 -10 10 0 6 5 10 10 10 6 0 10 -4 10 -10z
m100 -20 c0 -5 -4 -10 -10 -10 -5 0 -10 5 -10 10 0 6 5 10 10 10 6 0 10 -4 10
-10z m2680 0 c0 -5 -4 -10 -10 -10 -5 0 -10 5 -10 10 0 6 5 10 10 10 6 0 10
-4 10 -10z m-2760 -20 c0 -5 -4 -10 -10 -10 -5 0 -10 5 -10 10 0 6 5 10 10 10
6 0 10 -4 10 -10z m340 -54 c0 -3 -4 -8 -10 -11 -5 -3 -10 -1 -10 4 0 6 5 11
10 11 6 0 10 -2 10 -4z m4840 -6 c0 -5 -4 -10 -10 -10 -5 0 -10 5 -10 10 0 6
5 10 10 10 6 0 10 -4 10 -10z m-4440 -20 c0 -5 -4 -10 -10 -10 -5 0 -10 5 -10
10 0 6 5 10 10 10 6 0 10 -4 10 -10z m4160 -9 c0 -11 6 -22 13 -25 10 -5 10
-7 0 -12 -7 -3 -13 -14 -13 -25 0 -10 -4 -19 -10 -19 -5 0 -10 9 -10 20 0 13
-7 20 -20 20 -11 0 -20 5 -20 10 0 6 9 10 20 10 13 0 20 7 20 20 0 11 5 20 10
20 6 0 10 -9 10 -19z m-4711 -19 c-1 -9 2 -27 6 -39 5 -15 3 -23 -5 -23 -7 0
-10 7 -7 14 4 10 1 13 -9 9 -8 -3 -14 1 -14 8 0 11 -3 11 -11 -1 -9 -13 -10
-13 -6 0 2 8 13 14 23 12 18 -2 18 -2 -1 13 -17 13 -18 17 -5 25 18 11 29 4
29 -18z m74 -16 c4 -10 1 -13 -9 -9 -15 6 -19 23 -5 23 5 0 11 -7 14 -14z
m-166 -18 c3 6 12 12 21 12 13 0 11 -4 -6 -20 -25 -23 -31 -50 -8 -31 11 10
16 8 21 -8 3 -12 3 -25 0 -31 -3 -5 -1 -10 4 -10 6 0 11 5 11 12 0 6 9 3 20
-7 11 -10 23 -15 27 -12 3 4 1 7 -6 7 -7 0 -9 5 -6 10 4 6 1 9 -7 8 -7 -2 -12
3 -10 10 1 8 -2 11 -7 7 -10 -5 -37 33 -29 40 11 11 48 -10 48 -27 0 -10 5
-16 10 -13 6 3 10 0 10 -7 0 -10 2 -11 8 0 5 8 8 0 8 -21 -1 -23 -5 -33 -13
-30 -20 8 -15 -8 7 -27 20 -17 20 -17 -6 -44 -15 -14 -22 -26 -17 -26 5 0 26
-16 47 -35 35 -32 37 -36 22 -50 -15 -15 -17 -15 -33 0 -13 14 -14 18 -2 25 7
5 10 12 6 16 -4 4 -15 0 -25 -10 -12 -14 -14 -20 -4 -23 6 -3 12 -10 12 -16 0
-7 9 -18 20 -25 24 -14 26 -30 5 -38 -19 -8 -69 42 -61 61 3 9 0 15 -8 15 -15
0 -25 27 -19 48 3 6 10 9 16 5 7 -3 8 -2 4 2 -10 12 -38 15 -31 4 9 -15 -1
-10 -26 11 -27 24 -21 37 10 20 12 -6 24 -9 28 -6 3 3 0 6 -7 6 -7 0 -11 7 -8
15 4 8 2 17 -3 20 -5 3 -7 12 -3 20 6 17 -5 19 -27 6 -18 -12 -36 -1 -19 11
11 8 11 11 1 15 -10 4 -10 8 -1 19 8 10 6 20 -10 43 -19 26 -20 33 -9 51 12
19 14 19 27 3 9 -13 15 -14 18 -5z m-697 -7 c0 -11 6 -22 13 -25 10 -5 10 -7
0 -12 -7 -3 -13 -14 -13 -25 0 -10 -4 -19 -10 -19 -5 0 -10 9 -10 20 0 13 -7
20 -20 20 -11 0 -20 5 -20 10 0 6 9 10 20 10 13 0 20 7 20 20 0 11 5 20 10 20
6 0 10 -9 10 -19z m1840 -31 c0 -5 -4 -10 -10 -10 -5 0 -10 5 -10 10 0 6 5 10
10 10 6 0 10 -4 10 -10z m1980 -40 c0 -5 -4 -10 -10 -10 -5 0 -10 5 -10 10 0
6 5 10 10 10 6 0 10 -4 10 -10z m1220 0 c0 -5 -4 -10 -10 -10 -5 0 -10 5 -10
10 0 6 5 10 10 10 6 0 10 -4 10 -10z m-480 -80 c0 -5 -4 -10 -10 -10 -5 0 -10
5 -10 10 0 6 5 10 10 10 6 0 10 -4 10 -10z m-3736 -31 c-3 -6 0 -15 7 -20 7
-4 11 -10 9 -13 -3 -2 -14 2 -25 10 -17 13 -18 16 -5 24 20 13 23 12 14 -1z
m84 -19 c-7 -11 -16 -20 -20 -20 -5 0 -3 9 4 20 7 11 16 20 20 20 5 0 3 -9 -4
-20z m2232 -50 c0 -5 -4 -10 -10 -10 -5 0 -10 5 -10 10 0 6 5 10 10 10 6 0 10
-4 10 -10z m-280 -29 c0 -11 6 -22 13 -25 10 -5 10 -7 0 -12 -7 -3 -13 -14
-13 -25 0 -10 -4 -19 -10 -19 -5 0 -10 9 -10 20 0 13 -7 20 -20 20 -11 0 -20
5 -20 10 0 6 9 10 20 10 13 0 20 7 20 20 0 11 5 20 10 20 6 0 10 -9 10 -19z
m-1920 -11 c0 -5 -4 -10 -10 -10 -5 0 -10 5 -10 10 0 6 5 10 10 10 6 0 10 -4
10 -10z m-400 -20 c0 -5 -4 -10 -10 -10 -5 0 -10 5 -10 10 0 6 5 10 10 10 6 0
10 -4 10 -10z m326 -64 c20 -21 17 -28 -6 -14 -11 7 -20 16 -20 20 0 12 10 9
26 -6z m69 4 c3 -5 1 -10 -4 -10 -6 0 -11 5 -11 10 0 6 2 10 4 10 3 0 8 -4 11
-10z m-675 -29 c0 -11 6 -22 13 -25 10 -5 10 -7 0 -12 -7 -3 -13 -14 -13 -25
0 -10 -4 -19 -10 -19 -5 0 -10 9 -10 19 0 11 -6 22 -12 25 -10 5 -10 7 0 12 6
3 12 14 12 25 0 10 5 19 10 19 6 0 10 -9 10 -19z m1020 9 c0 -5 -4 -10 -10
-10 -5 0 -10 5 -10 10 0 6 5 10 10 10 6 0 10 -4 10 -10z m-320 -20 c0 -5 -2
-10 -4 -10 -3 0 -8 5 -11 10 -3 6 -1 10 4 10 6 0 11 -4 11 -10z m-170 -40 c0
-10 -26 -20 -33 -13 -3 3 -3 11 0 18 5 14 33 9 33 -5z m-90 -101 c0 -7 8 -18
18 -25 16 -13 16 -15 0 -28 -10 -7 -18 -18 -18 -25 0 -19 -17 -12 -23 9 -3 11
-12 20 -21 20 -23 0 -20 17 4 23 11 3 20 12 20 21 0 9 5 16 10 16 6 0 10 -5
10 -11z m300 1 c0 -5 -4 -10 -10 -10 -5 0 -10 5 -10 10 0 6 5 10 10 10 6 0 10
-4 10 -10z m1000 -160 c0 -5 -4 -10 -10 -10 -5 0 -10 5 -10 10 0 6 5 10 10 10
6 0 10 -4 10 -10z m200 -20 c0 -5 -4 -10 -10 -10 -5 0 -10 5 -10 10 0 6 5 10
10 10 6 0 10 -4 10 -10z m1900 -140 c0 -5 -4 -10 -10 -10 -5 0 -10 5 -10 10 0
6 5 10 10 10 6 0 10 -4 10 -10z m1360 -20 c0 -5 -4 -10 -10 -10 -5 0 -10 5
-10 10 0 6 5 10 10 10 6 0 10 -4 10 -10z m-2260 -60 c0 -5 -4 -10 -10 -10 -5
0 -10 5 -10 10 0 6 5 10 10 10 6 0 10 -4 10 -10z m1860 -49 c0 -11 6 -22 13
-25 10 -5 10 -7 0 -12 -7 -3 -13 -14 -13 -25 0 -10 -4 -19 -10 -19 -5 0 -10 9
-10 19 0 11 -6 22 -12 25 -10 5 -10 7 0 12 6 3 12 14 12 25 0 10 5 19 10 19 6
0 10 -9 10 -19z m-2820 -71 c0 -5 -4 -10 -10 -10 -5 0 -10 5 -10 10 0 6 5 10
10 10 6 0 10 -4 10 -10z m-280 -29 c0 -11 6 -22 13 -25 10 -5 10 -7 0 -12 -7
-3 -13 -14 -13 -25 0 -10 -4 -19 -10 -19 -5 0 -10 9 -10 20 0 13 -7 20 -20 20
-11 0 -20 5 -20 10 0 6 9 10 20 10 13 0 20 7 20 20 0 11 5 20 10 20 6 0 10 -9
10 -19z m3660 9 c0 -5 -4 -10 -10 -10 -5 0 -10 5 -10 10 0 6 5 10 10 10 6 0
10 -4 10 -10z m-5120 -100 c0 -5 -4 -10 -10 -10 -5 0 -10 5 -10 10 0 6 5 10
10 10 6 0 10 -4 10 -10z m-280 -29 c0 -11 6 -22 13 -25 10 -5 10 -7 0 -12 -7
-3 -13 -14 -13 -25 0 -10 -4 -19 -10 -19 -5 0 -10 9 -10 20 0 13 -7 20 -20 20
-11 0 -20 5 -20 10 0 6 9 10 20 10 13 0 20 7 20 20 0 11 5 20 10 20 6 0 10 -9
10 -19z m1280 -11 c0 -5 -4 -10 -10 -10 -5 0 -10 5 -10 10 0 6 5 10 10 10 6 0
10 -4 10 -10z m4100 -100 c0 -5 -4 -10 -10 -10 -5 0 -10 5 -10 10 0 6 5 10 10
10 6 0 10 -4 10 -10z m-3180 -20 c0 -5 -4 -10 -10 -10 -5 0 -10 5 -10 10 0 6
5 10 10 10 6 0 10 -4 10 -10z m1440 -60 c0 -5 -4 -10 -10 -10 -5 0 -10 5 -10
10 0 6 5 10 10 10 6 0 10 -4 10 -10z m460 0 c0 -5 -4 -10 -10 -10 -5 0 -10 5
-10 10 0 6 5 10 10 10 6 0 10 -4 10 -10z m860 -89 c0 -11 6 -22 13 -25 10 -5
10 -7 0 -12 -7 -3 -13 -14 -13 -25 0 -10 -4 -19 -10 -19 -5 0 -10 9 -10 20 0
13 -7 20 -20 20 -11 0 -20 5 -20 10 0 6 9 10 20 10 13 0 20 7 20 20 0 11 5 20
10 20 6 0 10 -9 10 -19z m-4700 -271 c0 -5 -4 -10 -10 -10 -5 0 -10 5 -10 10
0 6 5 10 10 10 6 0 10 -4 10 -10z m1360 -20 c0 -5 -4 -10 -10 -10 -5 0 -10 5
-10 10 0 6 5 10 10 10 6 0 10 -4 10 -10z m1300 -135 c-12 -15 -14 -15 -23 1
-6 11 -5 19 4 25 21 12 35 -7 19 -26z m-540 15 c0 -5 -4 -10 -10 -10 -5 0 -10
5 -10 10 0 6 5 10 10 10 6 0 10 -4 10 -10z m-280 -29 c0 -11 6 -22 13 -25 10
-5 10 -7 0 -12 -7 -3 -13 -14 -13 -25 0 -10 -4 -19 -10 -19 -5 0 -10 9 -10 20
0 13 -7 20 -20 20 -11 0 -20 5 -20 10 0 6 9 10 20 10 13 0 20 7 20 20 0 11 5
20 10 20 6 0 10 -9 10 -19z m3500 -191 c0 -5 -4 -10 -10 -10 -5 0 -10 5 -10
10 0 6 5 10 10 10 6 0 10 -4 10 -10z m-5344 -139 c-1 -9 6 -15 16 -15 14 1 17
-3 11 -24 -4 -19 -3 -23 7 -17 8 5 11 4 6 -3 -4 -6 -13 -9 -21 -6 -8 4 -18 -1
-21 -10 -3 -9 -11 -16 -17 -16 -6 0 -19 -8 -30 -17 -19 -17 -20 -17 -8 5 14
26 6 46 -16 38 -11 -4 -13 -1 -8 14 4 12 2 20 -5 20 -6 0 -8 5 -5 10 4 6 11 8
16 4 5 -3 17 0 25 7 10 8 11 14 4 19 -6 4 2 7 18 7 20 0 29 -5 28 -16z m224
-41 c0 -5 -4 -10 -10 -10 -5 0 -10 5 -10 10 0 6 5 10 10 10 6 0 10 -4 10 -10z
m-314 -45 c9 -8 11 -15 6 -15 -5 0 -15 7 -22 15 -7 8 -9 15 -6 15 4 0 14 -7
22 -15z m1134 -24 c0 -11 6 -22 13 -25 10 -5 10 -7 0 -12 -7 -3 -13 -14 -13
-25 0 -10 -4 -19 -10 -19 -5 0 -10 9 -10 19 0 11 -6 22 -12 25 -10 5 -10 7 0
12 6 3 12 14 12 25 0 10 5 19 10 19 6 0 10 -9 10 -19z m1020 9 c0 -5 -4 -10
-10 -10 -5 0 -10 5 -10 10 0 6 5 10 10 10 6 0 10 -4 10 -10z m-2070 -4 c0 -2
-8 -10 -17 -17 -16 -13 -17 -12 -4 4 13 16 21 21 21 13z m1196 -601 c23 -23
-4 -45 -56 -45 -50 0 -78 22 -58 44 17 20 95 21 114 1z m1340 0 c23 -23 -4
-45 -56 -45 -50 0 -78 22 -58 44 17 20 95 21 114 1z m-2026 -315 c0 -5 -4 -10
-10 -10 -5 0 -10 5 -10 10 0 6 5 10 10 10 6 0 10 -4 10 -10z m3766 -245 c14
-13 14 -17 0 -31 -15 -14 -17 -14 -32 0 -12 13 -13 18 -2 30 16 19 16 19 34 1z
m-4466 -15 c0 -5 -4 -10 -10 -10 -5 0 -10 5 -10 10 0 6 5 10 10 10 6 0 10 -4
10 -10z m3886 -25 c14 -13 14 -17 0 -31 -15 -14 -17 -14 -32 0 -12 13 -13 18
-2 30 16 19 16 19 34 1z m460 0 c13 -13 12 -18 -11 -41 -14 -14 -29 -23 -33
-20 -3 4 0 11 8 17 13 8 13 10 1 18 -12 8 -12 11 0 25 17 19 17 19 35 1z m580
0 c14 -13 14 -17 0 -31 -15 -14 -17 -14 -32 0 -12 13 -13 18 -2 30 16 19 16
19 34 1z m-406 -15 c0 -5 9 -10 20 -10 11 0 20 -4 20 -10 0 -5 -9 -10 -19 -10
-11 0 -21 -6 -23 -12 -3 -9 -9 -8 -22 4 -14 15 -15 20 -4 32 15 18 28 20 28 6z
m-493 -26 c14 -13 14 -17 2 -25 -12 -8 -12 -10 1 -18 8 -6 11 -13 8 -17 -4 -3
-19 6 -33 20 -22 22 -24 28 -13 41 16 18 16 18 35 -1z m203 -4 c8 -11 22 -20
32 -20 11 0 18 -7 18 -20 0 -13 -7 -20 -20 -20 -12 0 -20 7 -20 16 0 20 -29
49 -38 39 -4 -4 -1 -10 6 -12 14 -5 17 -43 3 -43 -5 0 -11 6 -14 13 -3 8 -11
4 -26 -12 -11 -13 -24 -21 -28 -18 -3 4 4 15 15 26 12 10 22 24 22 30 0 12 21
40 30 41 3 0 12 -9 20 -20z m576 5 c14 -13 14 -17 0 -31 -15 -14 -17 -14 -32
0 -12 13 -13 18 -2 30 16 19 16 19 34 1z m420 0 c14 -13 14 -17 0 -31 -15 -14
-17 -14 -32 0 -12 13 -13 18 -2 30 16 19 16 19 34 1z m-1499 -21 c14 -13 14
-17 2 -25 -12 -8 -12 -10 0 -18 12 -8 12 -12 -3 -26 -9 -10 -20 -14 -24 -11
-3 4 0 11 8 16 12 7 10 12 -9 29 -19 17 -21 22 -9 35 16 19 16 19 35 0z m653
10 c0 -4 -10 -15 -22 -26 -19 -16 -20 -21 -8 -29 11 -8 12 -12 3 -16 -20 -8
-15 -23 7 -23 11 0 20 -4 20 -10 0 -5 14 -10 30 -10 17 0 30 5 30 10 0 6 -7
10 -16 10 -22 0 -53 32 -36 38 6 2 12 12 12 23 0 21 16 26 23 7 4 -10 8 -9 16
2 5 8 13 11 17 8 9 -10 -21 -38 -40 -38 -9 0 -16 -4 -16 -10 0 -5 7 -10 15
-10 20 0 65 -45 65 -65 0 -19 7 -19 27 0 13 14 11 18 -17 45 -29 27 -31 31
-15 46 9 9 19 13 23 10 3 -4 0 -11 -7 -16 -11 -6 -8 -14 13 -35 l27 -27 18 21
c23 27 39 27 63 -1 16 -19 21 -20 28 -8 5 8 12 11 16 7 4 -4 -3 -15 -14 -26
-20 -17 -30 -51 -16 -51 3 0 20 15 37 33 19 20 32 27 34 20 3 -7 13 -13 23
-13 10 0 20 6 23 13 2 6 8 8 13 4 5 -4 2 -12 -5 -16 -11 -7 -6 -17 22 -45 20
-20 39 -36 42 -36 14 0 3 35 -17 51 -11 11 -18 22 -14 26 4 4 11 1 16 -6 7
-12 11 -11 26 3 14 15 15 19 3 26 -7 5 -10 12 -7 16 4 4 21 -8 38 -26 27 -29
31 -30 46 -16 14 14 14 18 0 31 -8 8 -22 15 -30 15 -9 0 -16 5 -16 10 0 6 9
10 19 10 11 0 21 6 24 13 2 6 8 8 13 4 5 -4 2 -12 -6 -17 -12 -7 -10 -13 9
-29 l24 -21 -21 -19 c-12 -10 -22 -30 -22 -45 0 -19 -5 -26 -20 -26 -22 0 -29
35 -7 43 6 2 9 8 5 12 -8 9 -38 -18 -38 -35 0 -15 25 -40 40 -40 15 0 60 46
60 61 0 6 10 20 22 30 l21 19 -23 20 c-21 18 -21 20 -6 36 9 9 20 13 24 10 3
-4 0 -11 -8 -16 -12 -7 -10 -13 9 -29 l24 -21 -21 -19 c-29 -25 -28 -38 10
-73 25 -23 29 -31 18 -38 -8 -5 -11 -13 -6 -17 5 -4 11 -2 13 5 8 21 43 14 43
-8 0 -11 -4 -20 -10 -20 -5 0 -10 5 -10 10 0 6 -4 10 -10 10 -5 0 -10 -9 -10
-20 0 -13 7 -20 20 -20 11 0 20 -4 20 -10 0 -5 9 -10 19 -10 11 0 21 -6 24
-12 2 -7 8 -10 12 -6 5 5 -2 16 -13 27 -12 10 -22 30 -22 44 0 14 -6 27 -12
29 -15 5 13 38 32 38 6 0 18 7 27 15 14 14 13 18 -8 35 -12 11 -19 23 -16 26
4 4 20 -8 37 -26 25 -27 33 -31 40 -20 5 8 13 11 17 6 4 -5 2 -11 -4 -13 -20
-7 -15 -23 6 -23 11 0 22 -6 24 -12 4 -10 8 -9 16 2 10 13 12 13 21 0 9 -13
11 -13 19 0 8 12 13 11 29 -8 11 -12 27 -22 36 -22 9 0 16 -4 16 -10 0 -5 -9
-10 -20 -10 -22 0 -29 -35 -7 -43 6 -2 9 -8 5 -12 -9 -10 -38 19 -38 39 0 9
-4 16 -10 16 -5 0 -10 -13 -10 -30 0 -16 -4 -30 -10 -30 -5 0 -10 -13 -10 -30
0 -27 3 -30 30 -30 17 0 30 5 30 10 0 6 -9 10 -20 10 -13 0 -20 7 -20 20 0 23
34 28 44 8 5 -10 7 -10 12 0 9 20 44 15 44 -7 0 -11 -6 -21 -12 -24 -7 -2 -9
-8 -5 -13 4 -5 12 -2 18 6 8 13 10 13 18 0 6 -8 14 -11 18 -6 4 5 2 11 -4 13
-14 5 -18 43 -5 43 4 0 14 -9 22 -20 8 -11 22 -20 31 -20 10 0 19 -6 21 -12 7
-21 38 17 38 46 0 19 -5 26 -20 26 -11 0 -20 5 -20 10 0 6 9 10 20 10 13 0 20
7 20 20 0 11 5 20 10 20 6 0 10 -9 10 -19 0 -11 6 -22 13 -25 10 -5 10 -7 0
-12 -7 -3 -13 -18 -13 -34 0 -16 6 -31 13 -33 9 -4 8 -8 -3 -16 -13 -10 -13
-12 0 -20 8 -6 11 -13 7 -18 -5 -4 -13 -1 -18 7 -8 11 -12 12 -16 3 -2 -7 -13
-13 -23 -13 -10 0 -20 -6 -22 -12 -3 -9 -9 -8 -21 4 -22 22 -21 28 3 28 11 0
20 5 20 10 0 15 -49 12 -66 -4 -18 -19 -18 -26 2 -26 18 0 44 -23 44 -40 0
-17 -30 -44 -38 -35 -4 4 -1 10 6 12 17 7 15 23 -4 23 -18 0 -44 23 -44 40 0
17 -26 40 -44 40 -9 0 -16 -4 -16 -10 0 -5 -13 -10 -30 -10 -16 0 -30 -4 -30
-10 0 -5 -9 -10 -20 -10 -11 0 -20 5 -20 10 0 6 -9 10 -20 10 -15 0 -20 7 -20
26 0 14 -7 32 -15 40 -13 14 -17 14 -30 0 -8 -8 -15 -22 -15 -30 0 -23 -8 -20
-40 14 -15 17 -35 30 -44 30 -22 0 -20 -13 4 -30 11 -8 20 -18 20 -22 0 -16
-33 -7 -52 14 -16 18 -21 20 -28 8 -7 -11 -15 -7 -41 21 -20 21 -34 29 -36 22
-6 -17 -40 -17 -45 -1 -3 8 -15 2 -33 -16 -23 -23 -25 -30 -14 -38 11 -7 11
-11 2 -15 -7 -2 -13 -13 -13 -24 0 -25 -8 -24 -31 3 -11 11 -22 18 -26 14 -4
-4 -1 -11 7 -16 8 -5 11 -12 8 -16 -4 -3 -26 13 -48 36 -32 34 -44 40 -50 29
-5 -7 -13 -10 -17 -5 -4 5 -2 11 5 13 19 7 14 23 -8 23 -12 0 -20 7 -20 16 0
8 -7 22 -15 30 -13 13 -19 11 -50 -20 -19 -19 -35 -42 -35 -51 0 -18 -16 -20
-23 -2 -4 9 -8 8 -16 -3 -10 -13 -12 -13 -20 -1 -8 12 -16 8 -42 -20 -20 -21
-34 -29 -36 -21 -7 19 -37 14 -53 -8 -15 -21 -50 -28 -50 -10 0 15 -30 12 -47
-6 -13 -13 -14 -17 -3 -24 11 -7 10 -11 -3 -24 -22 -22 -27 -20 -27 9 0 29
-59 95 -85 95 -8 0 -15 9 -15 20 0 23 34 28 44 8 5 -10 7 -10 12 0 3 6 10 12
15 12 14 0 11 -38 -3 -42 -9 -3 -8 -10 5 -23 16 -15 20 -16 28 -4 8 12 10 12
18 -1 6 -8 13 -11 17 -8 3 4 -1 15 -11 24 -14 14 -18 15 -25 3 -5 -7 -13 -10
-17 -5 -4 5 -2 11 5 13 17 6 15 31 -4 50 -13 14 -17 14 -26 2 -7 -11 -11 -11
-15 -1 -6 16 -31 15 -49 -2 -17 -18 -18 -43 -1 -49 9 -4 8 -8 -3 -16 -13 -10
-13 -12 0 -20 8 -6 11 -13 7 -17 -4 -4 -16 3 -27 15 -17 21 -21 22 -35 8 -17
-17 -20 -47 -5 -47 6 0 10 -4 10 -10 0 -14 -37 -12 -43 3 -4 9 -8 8 -16 -3 -5
-8 -13 -11 -18 -7 -4 5 -1 13 7 18 11 8 12 12 3 16 -15 6 -17 43 -3 43 6 0 10
11 10 25 0 29 111 148 118 127 5 -17 22 -15 22 4 0 8 7 23 16 31 13 14 17 14
26 2 7 -11 11 -11 15 -1 6 14 63 17 63 2 0 -5 7 -10 16 -10 22 0 53 -32 36
-38 -6 -2 -12 -12 -12 -23 0 -10 -3 -19 -6 -19 -10 0 -34 28 -34 40 0 17 -26
40 -44 40 -23 0 -20 -8 16 -42 25 -23 29 -31 18 -38 -8 -5 -11 -12 -7 -17 5
-4 12 -1 18 7 8 13 10 13 19 0 9 -13 11 -13 19 0 6 8 13 11 18 7 4 -5 1 -12
-7 -17 -8 -5 -11 -12 -7 -17 5 -4 12 -1 17 7 5 8 13 11 17 6 4 -5 2 -11 -4
-13 -15 -5 -17 -43 -3 -43 6 0 10 -4 10 -10 0 -5 -9 -10 -20 -10 -11 0 -20 -4
-20 -10 0 -16 30 -12 48 7 12 12 13 18 4 21 -16 5 -16 39 1 45 8 3 5 11 -10
24 -20 18 -32 53 -18 53 14 0 78 -74 67 -78 -7 -2 -12 -10 -12 -19 0 -19 29
-48 38 -38 4 4 1 10 -5 12 -18 6 -16 31 3 50 13 14 17 14 26 2 7 -11 11 -11
15 -1 8 19 23 14 23 -8 0 -11 5 -20 10 -20 6 0 10 9 10 20 0 22 16 27 23 8 2
-7 8 -10 12 -6 4 4 0 15 -10 24 -14 15 -18 15 -26 3 -8 -12 -10 -12 -19 1 -9
13 -11 13 -20 0 -9 -13 -11 -13 -20 0 -9 13 -11 13 -19 0 -6 -8 -13 -11 -17
-8 -3 4 1 15 11 24 14 15 18 15 26 3 8 -12 10 -12 19 1 9 13 11 13 19 0 6 -8
13 -11 18 -7 4 5 1 12 -7 18 -13 8 -13 10 0 19 13 9 13 11 0 20 -13 9 -13 11
0 19 8 6 11 13 7 18 -5 4 -12 1 -17 -7 -5 -8 -12 -11 -17 -7 -4 5 -1 12 7 17
8 5 11 12 7 16 -4 4 -15 -3 -26 -14 -23 -27 -31 -28 -31 -2 0 12 7 20 16 20 8
0 22 6 30 14 16 17 19 46 4 46 -5 0 -10 -9 -10 -20 0 -11 -4 -20 -10 -20 -5 0
-10 5 -10 10 0 6 -4 10 -10 10 -5 0 -10 -9 -10 -20 0 -11 -4 -20 -10 -20 -5 0
-10 -9 -10 -20 0 -22 -16 -27 -23 -7 -3 8 -11 4 -25 -11 l-21 -24 -26 26 c-14
14 -25 28 -25 31 0 3 23 5 50 5 43 0 50 3 50 20 0 11 5 20 10 20 6 0 10 5 10
10 0 14 -37 12 -44 -2 -5 -10 -7 -10 -12 0 -9 19 -24 14 -24 -8 0 -11 -4 -20
-10 -20 -5 0 -10 9 -10 20 0 11 -4 20 -10 20 -5 0 -10 -9 -10 -20 0 -13 -7
-20 -20 -20 -11 0 -20 2 -20 5 0 8 144 153 153 154 4 1 7 -2 7 -5z m260 -4 c0
-5 -4 -10 -10 -10 -5 0 -10 5 -10 10 0 6 5 10 10 10 6 0 10 -4 10 -10z m60 0
c0 -5 -4 -10 -10 -10 -5 0 -10 5 -10 10 0 6 5 10 10 10 6 0 10 -4 10 -10z
m-580 -16 c0 -3 -7 -12 -15 -21 -20 -19 -32 -10 -14 11 14 15 29 21 29 10z
m-540 -24 c0 -5 -4 -10 -10 -10 -5 0 -10 5 -10 10 0 6 5 10 10 10 6 0 10 -4
10 -10z m60 4 c0 -3 -7 -12 -15 -21 -20 -19 -32 -10 -14 11 14 15 29 21 29 10z
m260 -4 c0 -5 -4 -10 -10 -10 -5 0 -10 5 -10 10 0 6 5 10 10 10 6 0 10 -4 10
-10z m660 4 c0 -3 -7 -12 -15 -21 -20 -19 -32 -10 -14 11 14 15 29 21 29 10z
m140 0 c0 -3 -7 -12 -15 -21 -20 -19 -32 -10 -14 11 14 15 29 21 29 10z m60
-4 c0 -5 -4 -10 -10 -10 -5 0 -10 5 -10 10 0 6 5 10 10 10 6 0 10 -4 10 -10z
m287 -5 c8 -9 13 -19 10 -22 -6 -5 -37 21 -37 31 0 10 11 6 27 -9z m-1507 -14
c0 -5 -6 -12 -12 -14 -10 -4 -9 -8 2 -16 8 -5 11 -14 6 -18 -5 -4 -11 -2 -13
5 -3 6 -13 12 -24 12 -10 0 -19 5 -19 10 0 6 9 10 20 10 11 0 20 5 20 10 0 6
5 10 10 10 6 0 10 -4 10 -9z m140 3 c0 -3 -7 -12 -15 -21 -20 -19 -32 -10 -14
11 14 15 29 21 29 10z m146 -29 c32 -32 34 -37 19 -51 -9 -9 -19 -13 -23 -10
-3 4 0 11 7 16 11 6 8 14 -14 35 -21 22 -29 25 -35 14 -5 -7 -12 -10 -15 -7
-6 6 13 36 23 38 1 0 19 -16 38 -35z m34 25 c0 -5 -4 -10 -10 -10 -5 0 -10 5
-10 10 0 6 5 10 10 10 6 0 10 -4 10 -10z m103 -2 c4 -10 8 -9 16 2 5 8 13 11
18 7 4 -5 1 -12 -7 -17 -12 -7 -10 -13 9 -29 l24 -21 -24 -21 c-16 -15 -20
-23 -11 -26 14 -5 16 -43 2 -43 -5 0 -10 9 -10 20 0 13 -7 20 -20 20 -13 0
-20 -7 -20 -20 0 -11 -4 -20 -10 -20 -5 0 -10 9 -10 19 0 11 -6 21 -12 24 -7
2 -9 8 -5 13 4 5 13 2 18 -6 8 -11 12 -12 16 -2 2 6 11 12 20 12 8 0 21 7 29
15 13 13 12 18 -11 41 -21 21 -29 24 -35 13 -5 -7 -12 -10 -15 -7 -7 7 15 37
27 38 3 0 9 -6 11 -12z m677 2 c0 -5 -4 -10 -10 -10 -5 0 -10 5 -10 10 0 6 5
10 10 10 6 0 10 -4 10 -10z m160 1 c0 -5 -6 -12 -12 -14 -10 -4 -9 -8 2 -16 8
-5 11 -13 8 -17 -4 -3 -14 1 -23 10 -13 13 -14 18 -3 30 15 17 28 20 28 7z
m40 -1 c0 -5 -4 -10 -10 -10 -5 0 -10 5 -10 10 0 6 5 10 10 10 6 0 10 -4 10
-10z m260 0 c0 -5 -4 -10 -10 -10 -5 0 -10 5 -10 10 0 6 5 10 10 10 6 0 10 -4
10 -10z m-1512 -27 c12 -12 13 -18 4 -21 -6 -2 -12 -12 -12 -23 0 -12 -7 -19
-20 -19 -26 0 -25 8 3 33 15 13 18 21 10 24 -7 3 -13 9 -13 14 0 14 9 11 28
-8z m312 7 c0 -5 -4 -10 -10 -10 -5 0 -10 5 -10 10 0 6 5 10 10 10 6 0 10 -4
10 -10z m140 0 c0 -5 -4 -10 -10 -10 -5 0 -10 5 -10 10 0 6 5 10 10 10 6 0 10
-4 10 -10z m40 0 c0 -5 -4 -10 -10 -10 -5 0 -10 5 -10 10 0 6 5 10 10 10 6 0
10 -4 10 -10z m40 0 c0 -5 -4 -10 -10 -10 -5 0 -10 5 -10 10 0 6 5 10 10 10 6
0 10 -4 10 -10z m83 -2 c4 -10 8 -9 16 2 5 8 13 11 16 8 4 -4 -9 -23 -30 -43
-20 -20 -39 -34 -42 -31 -4 3 5 16 18 27 16 15 20 23 12 26 -15 5 -17 23 -4
23 5 0 12 -6 14 -12z m537 2 c0 -5 -9 -10 -20 -10 -11 0 -20 5 -20 10 0 6 9
10 20 10 11 0 20 -4 20 -10z m280 0 c0 -5 9 -10 20 -10 11 0 20 -4 20 -10 0
-15 -29 -12 -46 4 -16 17 -18 26 -4 26 6 0 10 -4 10 -10z m526 -5 c14 -13 14
-17 0 -31 -15 -14 -17 -14 -32 0 -12 13 -13 18 -2 30 16 19 16 19 34 1z
m-2146 -15 c0 -5 -4 -10 -10 -10 -5 0 -10 5 -10 10 0 6 5 10 10 10 6 0 10 -4
10 -10z m60 0 c0 -5 -4 -10 -10 -10 -5 0 -10 5 -10 10 0 6 5 10 10 10 6 0 10
-4 10 -10z m700 0 c0 -5 -4 -10 -10 -10 -5 0 -10 5 -10 10 0 6 5 10 10 10 6 0
10 -4 10 -10z m960 0 c0 -5 -4 -10 -10 -10 -5 0 -10 5 -10 10 0 6 5 10 10 10
6 0 10 -4 10 -10z m40 0 c0 -5 -4 -10 -10 -10 -5 0 -10 5 -10 10 0 6 5 10 10
10 6 0 10 -4 10 -10z m120 0 c0 -5 -4 -10 -10 -10 -5 0 -10 5 -10 10 0 6 5 10
10 10 6 0 10 -4 10 -10z m-2054 -25 c14 -13 14 -17 0 -31 -15 -14 -17 -14 -32
0 -12 13 -13 18 -2 30 16 19 16 19 34 1z m121 -1 c14 -13 14 -17 2 -24 -11 -7
-9 -13 10 -30 14 -11 21 -23 18 -27 -4 -3 -16 4 -27 18 -17 19 -23 21 -30 9
-5 -8 -12 -11 -17 -7 -4 5 -1 12 7 18 13 8 13 10 1 18 -12 8 -12 11 0 25 18
19 17 19 36 0z m293 6 c0 -14 38 -12 43 3 2 6 8 9 12 5 10 -9 -19 -38 -38 -38
-9 0 -18 6 -20 13 -4 9 -8 8 -16 -3 -5 -8 -13 -11 -16 -8 -7 7 15 37 28 38 4
0 7 -4 7 -10z m100 0 c0 -5 -4 -10 -10 -10 -5 0 -10 5 -10 10 0 6 5 10 10 10
6 0 10 -4 10 -10z m40 0 c0 -5 -4 -10 -10 -10 -5 0 -10 5 -10 10 0 6 5 10 10
10 6 0 10 -4 10 -10z m120 0 c0 -5 -4 -10 -10 -10 -5 0 -10 5 -10 10 0 6 5 10
10 10 6 0 10 -4 10 -10z m40 0 c0 -5 -4 -10 -10 -10 -5 0 -10 5 -10 10 0 6 5
10 10 10 6 0 10 -4 10 -10z m120 0 c0 -5 -4 -10 -10 -10 -5 0 -10 5 -10 10 0
6 5 10 10 10 6 0 10 -4 10 -10z m40 0 c0 -5 9 -10 20 -10 11 0 20 -4 20 -10 0
-15 -29 -12 -46 4 -16 17 -18 26 -4 26 6 0 10 -4 10 -10z m1120 0 c0 -5 -4
-10 -10 -10 -5 0 -10 5 -10 10 0 6 5 10 10 10 6 0 10 -4 10 -10z m140 2 c0 -4
-9 -14 -20 -22 -11 -8 -20 -18 -20 -22 0 -4 9 -8 20 -8 13 0 20 -7 20 -20 0
-13 -7 -20 -20 -20 -13 0 -20 7 -20 19 0 11 -5 21 -12 23 -8 3 -4 14 12 31 25
26 40 33 40 19z m-1940 -18 c0 -3 -7 -12 -15 -21 -20 -19 -32 -10 -14 11 14
15 29 21 29 10z m40 -4 c0 -5 -4 -10 -10 -10 -5 0 -10 5 -10 10 0 6 5 10 10
10 6 0 10 -4 10 -10z m50 -10 c11 -15 26 -20 62 -20 41 0 48 -3 48 -20 0 -11
-4 -20 -10 -20 -5 0 -10 -9 -10 -20 0 -11 5 -20 10 -20 6 0 10 7 10 16 0 33
52 60 63 32 4 -10 8 -9 17 2 9 11 13 12 17 3 2 -7 13 -13 24 -13 10 0 19 -4
19 -10 0 -5 9 -10 20 -10 11 0 20 -4 20 -10 0 -5 -9 -10 -20 -10 -13 0 -20 -7
-20 -20 0 -22 15 -27 23 -7 4 9 8 8 16 -3 9 -13 12 -13 20 -1 8 12 12 12 25
-2 9 -8 16 -23 16 -31 0 -9 5 -16 10 -16 6 0 10 -7 10 -16 0 -9 10 -25 22 -36
19 -16 20 -21 8 -29 -13 -8 -13 -10 0 -19 13 -9 13 -11 0 -21 -11 -8 -12 -12
-2 -16 14 -5 17 -43 3 -43 -5 0 -11 6 -14 13 -2 7 -16 -1 -37 -23 -21 -22 -35
-30 -37 -22 -3 6 -13 12 -24 12 -21 0 -26 16 -7 22 17 6 -14 38 -36 38 -9 0
-16 8 -16 20 0 11 4 20 8 20 4 0 14 -9 22 -20 8 -11 22 -20 32 -20 10 0 18 -4
18 -10 0 -19 31 -10 56 15 l26 26 -23 20 c-20 17 -21 22 -9 30 11 8 12 12 3
16 -7 2 -13 13 -13 24 0 10 -4 19 -10 19 -14 0 -12 -38 3 -43 6 -2 8 -8 4 -13
-4 -5 -12 -2 -18 6 -8 13 -10 13 -19 0 -9 -13 -11 -13 -20 0 -9 13 -11 13 -19
1 -8 -12 -12 -12 -25 2 -9 8 -16 23 -16 31 0 9 -4 16 -10 16 -5 0 -10 -9 -10
-20 0 -11 -4 -20 -10 -20 -5 0 -10 9 -10 20 0 11 -4 20 -10 20 -5 0 -10 -9
-10 -20 0 -13 -7 -20 -20 -20 -13 0 -20 7 -20 20 0 11 -4 20 -10 20 -14 0 -12
-38 3 -43 6 -2 8 -8 4 -13 -4 -5 -12 -2 -18 6 -8 13 -10 13 -19 0 -9 -13 -11
-13 -19 0 -6 8 -13 11 -18 7 -4 -5 -1 -12 6 -17 12 -7 11 -11 -3 -25 -9 -10
-20 -14 -24 -11 -3 4 0 11 8 16 8 5 11 12 7 17 -5 4 -12 1 -18 -7 -8 -13 -10
-13 -19 0 -9 13 -11 13 -20 0 -9 -13 -11 -13 -19 0 -6 8 -13 11 -18 7 -4 -5
-1 -12 6 -17 12 -7 11 -11 -3 -26 -15 -14 -19 -15 -26 -3 -5 7 -12 10 -17 6
-4 -5 -1 -12 7 -17 8 -5 11 -12 7 -17 -5 -4 -12 -1 -17 7 -5 8 -12 11 -17 7
-4 -5 -1 -12 7 -17 8 -5 11 -12 7 -17 -5 -4 -12 -1 -17 7 -5 8 -12 11 -17 7
-4 -5 -1 -12 7 -18 13 -8 13 -10 0 -18 -8 -6 -11 -13 -8 -17 4 -3 26 13 49 37
26 27 44 39 46 32 5 -15 43 -18 43 -3 0 6 -9 10 -20 10 -24 0 -25 6 -5 26 13
14 17 14 30 0 8 -8 15 -22 15 -30 0 -9 5 -16 10 -16 6 0 10 -4 10 -10 0 -5 -9
-10 -20 -10 -13 0 -20 -7 -20 -20 0 -11 -4 -20 -10 -20 -5 0 -10 9 -10 20 0
13 -7 20 -20 20 -13 0 -20 -7 -20 -20 0 -16 -7 -20 -30 -20 -23 0 -30 -4 -30
-20 0 -11 5 -20 10 -20 6 0 10 -9 10 -19 0 -11 6 -22 13 -25 10 -5 10 -7 0
-12 -7 -3 -13 -14 -13 -24 0 -10 6 -20 13 -23 6 -2 9 -8 5 -12 -9 -10 -38 19
-38 39 0 9 -4 16 -10 16 -14 0 -12 37 3 44 10 5 10 7 0 12 -7 3 -13 14 -13 25
0 10 -4 19 -10 19 -5 0 -10 -9 -10 -20 0 -11 -4 -20 -10 -20 -14 0 -12 37 3
43 9 4 8 8 -3 17 -11 9 -12 13 -2 17 17 7 15 23 -3 23 -20 0 -85 -65 -85 -84
0 -8 -6 -17 -12 -19 -10 -4 -9 -8 2 -17 11 -9 12 -13 3 -17 -7 -2 -13 -16 -13
-30 0 -32 -22 -53 -54 -53 -14 0 -26 3 -26 6 0 11 29 34 44 34 9 0 16 8 16 20
0 13 -7 20 -20 20 -11 0 -20 -4 -20 -10 0 -5 -9 -10 -19 -10 -11 0 -21 -6 -24
-12 -2 -8 -8 -9 -13 -4 -5 5 -4 11 4 13 14 5 17 63 2 63 -5 0 -10 -9 -10 -20
0 -11 -4 -20 -10 -20 -5 0 -10 9 -10 20 0 11 -4 20 -10 20 -18 0 -11 32 11 51
20 17 20 19 4 35 -14 14 -18 15 -25 3 -5 -7 -12 -10 -17 -6 -4 5 -1 12 6 17
12 7 12 11 -2 24 -8 9 -23 16 -31 16 -9 0 -16 5 -16 10 0 6 9 10 19 10 11 0
21 6 24 13 2 6 8 8 13 4 5 -4 2 -12 -5 -16 -11 -7 -5 -17 23 -45 32 -33 38
-35 51 -22 8 8 15 20 15 26 0 11 44 60 55 60 3 0 5 -9 5 -20 0 -11 5 -20 10
-20 6 0 10 9 10 19 0 11 6 22 13 24 9 4 8 8 -3 16 -8 5 -11 14 -6 18 5 4 11 2
13 -4 3 -7 9 -13 14 -13 14 0 11 38 -3 43 -7 2 -10 8 -6 12 6 7 58 -37 58 -50
0 -3 -9 -5 -20 -5 -11 0 -20 -4 -20 -10 0 -5 5 -10 10 -10 6 0 10 -7 10 -16 0
-33 52 -60 63 -31 4 9 8 8 16 -3 5 -8 13 -11 18 -7 4 5 1 12 -7 17 -12 7 -11
12 8 28 24 21 29 48 10 55 -10 4 -9 8 2 16 8 5 11 13 8 17 -4 3 -15 -2 -25
-12 -13 -12 -14 -19 -5 -22 12 -4 18 -42 6 -42 -11 0 -34 29 -34 43 0 9 6 17
13 20 7 2 0 16 -21 35 -31 29 -33 33 -18 48 16 15 18 14 36 -6 18 -21 20 -21
36 -5 14 14 15 18 3 25 -7 5 -10 12 -7 16 4 3 15 -1 24 -10 15 -16 15 -18 -6
-36 l-22 -19 26 -26 c14 -14 32 -25 41 -25 10 0 15 -10 15 -30 0 -34 5 -37 26
-16 19 19 18 46 -1 46 -9 0 -27 11 -41 25 l-26 26 22 19 23 20 -33 30 c-18 17
-30 34 -26 38 4 3 11 0 17 -8 8 -13 10 -13 18 -1 7 11 14 9 35 -12 14 -14 26
-33 26 -42 0 -8 5 -15 10 -15 6 0 10 9 10 20 0 11 -4 20 -10 20 -5 0 -10 8
-10 18 0 10 -9 24 -20 32 -11 8 -20 18 -20 22 0 15 15 8 30 -12z m1570 10 c0
-5 -4 -10 -10 -10 -5 0 -10 5 -10 10 0 6 5 10 10 10 6 0 10 -4 10 -10z m100 0
c0 -5 -4 -10 -10 -10 -5 0 -10 5 -10 10 0 6 5 10 10 10 6 0 10 -4 10 -10z
m-1400 -20 c0 -5 -4 -10 -10 -10 -5 0 -10 5 -10 10 0 6 5 10 10 10 6 0 10 -4
10 -10z m100 0 c0 -5 -4 -10 -10 -10 -5 0 -10 5 -10 10 0 6 5 10 10 10 6 0 10
-4 10 -10z m163 -2 c4 -10 8 -10 15 1 9 12 13 12 27 -3 10 -9 14 -20 11 -24
-4 -3 -11 0 -16 8 -7 12 -13 10 -30 -9 -11 -14 -23 -21 -27 -17 -4 4 -1 12 7
17 11 8 12 12 3 16 -7 2 -13 9 -13 14 0 13 18 11 23 -3z m977 2 c0 -5 9 -10
20 -10 16 0 20 -7 20 -30 0 -23 -4 -30 -20 -30 -16 0 -20 7 -20 30 0 17 -4 30
-10 30 -5 0 -10 5 -10 10 0 6 5 10 10 10 6 0 10 -4 10 -10z m220 0 c0 -5 -4
-10 -10 -10 -5 0 -10 5 -10 10 0 6 5 10 10 10 6 0 10 -4 10 -10z m40 0 c0 -5
-4 -10 -10 -10 -5 0 -10 5 -10 10 0 6 5 10 10 10 6 0 10 -4 10 -10z m140 0 c0
-5 -4 -10 -10 -10 -5 0 -10 5 -10 10 0 6 5 10 10 10 6 0 10 -4 10 -10z m47 -5
c14 -14 13 -18 -7 -35 l-23 -20 23 -20 23 -20 -23 -20 -23 -20 23 -20 c13 -11
21 -23 17 -26 -3 -3 -18 6 -32 20 l-27 27 23 19 22 20 -23 20 -23 20 24 21
c16 15 20 23 12 26 -7 3 -13 9 -13 14 0 13 9 11 27 -6z m-1640 -20 c8 -9 13
-19 10 -22 -6 -5 -37 21 -37 31 0 10 11 6 27 -9z m1273 5 c0 -5 -4 -10 -10
-10 -5 0 -10 5 -10 10 0 6 5 10 10 10 6 0 10 -4 10 -10z m440 5 c0 -11 -51
-57 -57 -52 -3 3 6 17 18 31 23 24 39 32 39 21z m-2320 -25 c0 -5 -4 -10 -10
-10 -5 0 -10 5 -10 10 0 6 5 10 10 10 6 0 10 -4 10 -10z m60 0 c0 -5 -4 -10
-10 -10 -5 0 -10 5 -10 10 0 6 5 10 10 10 6 0 10 -4 10 -10z m620 0 c0 -5 -4
-10 -10 -10 -5 0 -10 5 -10 10 0 6 5 10 10 10 6 0 10 -4 10 -10z m-720 -20 c0
-5 -4 -10 -10 -10 -5 0 -10 5 -10 10 0 6 5 10 10 10 6 0 10 -4 10 -10z m140 0
c0 -5 -4 -10 -10 -10 -5 0 -10 5 -10 10 0 6 5 10 10 10 6 0 10 -4 10 -10z
m1043 -2 c4 -10 8 -9 16 2 10 13 12 13 21 0 9 -13 11 -13 19 -1 8 12 12 12 26
-2 15 -16 15 -18 0 -34 -14 -13 -18 -14 -25 -2 -7 11 -13 9 -29 -10 l-20 -23
-26 26 c-22 22 -24 28 -13 41 16 18 25 19 31 3z m1037 2 c0 -5 -4 -10 -10 -10
-5 0 -10 5 -10 10 0 6 5 10 10 10 6 0 10 -4 10 -10z m167 -5 c8 -9 13 -19 10
-22 -6 -5 -37 21 -37 31 0 10 11 6 27 -9z m-2427 -15 c0 -5 -4 -10 -10 -10 -5
0 -10 5 -10 10 0 6 5 10 10 10 6 0 10 -4 10 -10z m100 0 c0 -5 -4 -10 -10 -10
-5 0 -10 5 -10 10 0 6 5 10 10 10 6 0 10 -4 10 -10z m46 -5 c14 -13 14 -17 -1
-31 -9 -9 -19 -13 -23 -10 -3 4 0 12 8 17 11 8 12 12 3 16 -13 5 -18 23 -7 23
3 0 12 -7 20 -15z m-206 -15 c0 -5 -4 -10 -10 -10 -5 0 -10 5 -10 10 0 6 5 10
10 10 6 0 10 -4 10 -10z m844 -2 c5 -10 7 -10 12 0 7 14 44 16 44 2 0 -5 -9
-10 -20 -10 -22 0 -27 -16 -7 -23 6 -2 9 -8 5 -12 -6 -7 -58 37 -58 50 0 10
18 5 24 -7z m1496 2 c0 -5 -9 -10 -20 -10 -11 0 -20 5 -20 10 0 6 9 10 20 10
11 0 20 -4 20 -10z m-2260 -20 c0 -5 -4 -10 -10 -10 -5 0 -10 5 -10 10 0 6 5
10 10 10 6 0 10 -4 10 -10z m43 -2 c4 -10 8 -9 16 2 5 8 13 11 18 7 4 -5 1
-12 -7 -18 -13 -8 -13 -10 0 -20 11 -8 12 -12 3 -16 -7 -2 -13 -13 -13 -24 0
-11 -7 -19 -16 -19 -9 0 -25 -10 -35 -21 l-19 -22 -31 34 c-25 27 -32 30 -41
18 -7 -11 -11 -11 -15 -1 -2 6 -13 12 -24 12 -10 0 -19 5 -19 10 0 14 37 12
43 -2 4 -10 8 -10 15 1 9 12 16 9 41 -18 27 -29 32 -31 46 -18 18 19 20 44 3
50 -8 2 -9 8 -4 13 5 5 11 4 13 -3 5 -14 43 -18 43 -5 0 4 -9 14 -20 22 -21
15 -26 30 -11 30 5 0 12 -6 14 -12z m-123 -18 c0 -5 -4 -10 -10 -10 -5 0 -10
5 -10 10 0 6 5 10 10 10 6 0 10 -4 10 -10z m47 -5 c8 -9 13 -19 10 -22 -6 -5
-37 21 -37 31 0 10 11 6 27 -9z m200 0 c8 -9 13 -19 10 -22 -6 -5 -37 21 -37
31 0 10 11 6 27 -9z m2073 -5 c0 -24 -6 -25 -26 -6 -19 20 -18 26 6 26 13 0
20 -7 20 -20z m-2400 -10 c0 -5 -4 -10 -10 -10 -5 0 -10 5 -10 10 0 6 5 10 10
10 6 0 10 -4 10 -10z m-2780 -20 c0 -5 -4 -10 -10 -10 -5 0 -10 5 -10 10 0 6
5 10 10 10 6 0 10 -4 10 -10z m2506 -45 c14 -13 14 -17 0 -31 -15 -14 -17 -14
-32 0 -12 13 -13 18 -2 30 16 19 16 19 34 1z m977 3 c4 -10 8 -9 16 2 8 12 13
11 31 -10 18 -20 23 -22 31 -10 8 13 10 13 19 0 8 -13 11 -13 19 -1 7 11 14 9
36 -13 23 -23 24 -28 11 -41 -21 -21 -46 -19 -46 5 0 15 -7 20 -29 20 -16 0
-32 6 -34 13 -4 9 -8 8 -16 -3 -8 -12 -13 -11 -31 9 -11 14 -23 21 -27 18 -3
-4 4 -15 15 -26 12 -10 22 -24 22 -30 0 -17 26 -41 44 -41 9 0 16 -4 16 -10 0
-14 -38 -12 -43 3 -2 6 -8 8 -13 4 -5 -4 -2 -12 5 -17 12 -7 12 -11 -2 -24 -8
-9 -18 -16 -21 -16 -12 0 -6 58 7 63 7 2 -5 20 -30 45 -49 46 -51 52 -23 52
11 0 20 5 20 10 0 14 17 12 23 -2z m-1083 -18 c0 -5 -4 -10 -10 -10 -5 0 -10
5 -10 10 0 6 5 10 10 10 6 0 10 -4 10 -10z m760 4 c0 -3 -6 -12 -14 -20 -21
-21 -46 -17 -46 6 0 16 7 20 30 20 17 0 30 -3 30 -6z m277 -41 c27 -27 42 -48
35 -51 -16 -5 -16 -59 0 -64 9 -3 8 -9 -5 -22 -16 -16 -18 -16 -34 -1 -14 14
-14 18 -2 26 12 8 12 10 -1 19 -13 9 -13 11 0 19 8 6 11 14 6 18 -5 4 -11 2
-13 -4 -9 -24 -23 -13 -23 17 0 30 14 41 23 18 2 -7 8 -10 12 -6 4 4 0 15 -10
24 -14 15 -18 15 -26 3 -8 -12 -10 -12 -18 1 -6 8 -14 11 -18 6 -4 -5 -2 -11
5 -13 14 -5 17 -63 2 -63 -5 0 -10 -18 -10 -39 0 -22 -5 -41 -12 -44 -7 -2 -9
-8 -5 -13 4 -5 12 -2 17 6 5 8 12 11 17 7 4 -5 1 -12 -7 -17 -8 -5 -11 -12 -7
-17 5 -4 12 -1 17 7 5 8 12 11 17 7 4 -5 1 -12 -7 -17 -8 -5 -11 -12 -8 -16 4
-3 15 1 24 10 15 16 15 18 -5 35 -14 12 -21 30 -21 55 0 40 4 43 27 20 13 -13
14 -17 3 -24 -10 -6 -7 -14 14 -35 l27 -27 19 22 19 22 28 -28 c17 -17 23 -29
15 -32 -16 -5 -16 -39 1 -45 8 -3 4 -11 -12 -26 l-24 -21 23 -20 23 -20 -32
-29 c-19 -18 -31 -39 -31 -55 0 -19 -5 -26 -20 -26 -13 0 -20 7 -20 20 0 13
-7 20 -20 20 -24 0 -25 6 -4 27 13 13 17 14 24 3 6 -10 14 -7 35 14 l27 27
-23 19 -22 20 24 21 c16 15 20 23 12 26 -7 3 -13 13 -13 23 0 10 6 20 13 23 6
2 9 8 5 12 -9 10 -38 -19 -38 -38 0 -9 6 -17 12 -19 9 -3 7 -10 -6 -24 -14
-13 -21 -15 -24 -6 -5 16 -59 16 -65 0 -2 -8 -8 -9 -13 -4 -5 5 -4 11 4 13 21
8 13 34 -18 63 -29 27 -40 60 -20 60 14 0 12 38 -2 43 -9 3 -5 12 12 27 17 15
21 24 13 27 -20 7 -15 31 10 58 12 13 23 24 25 24 1 1 24 -20 49 -46z m-530
12 c8 -9 13 -19 10 -22 -6 -5 -37 21 -37 31 0 10 11 6 27 -9z m1053 -35 c0
-34 -5 -37 -26 -15 -13 12 -13 17 -2 29 20 23 28 19 28 -14z m-1580 -19 c0 -5
-6 -12 -12 -14 -10 -4 -9 -8 2 -16 8 -5 11 -13 8 -17 -4 -3 -14 1 -23 10 -13
13 -14 18 -3 30 15 17 28 20 28 7z m100 -1 c0 -5 -4 -10 -10 -10 -5 0 -10 5
-10 10 0 6 5 10 10 10 6 0 10 -4 10 -10z m340 0 c0 -5 -4 -10 -10 -10 -5 0
-10 5 -10 10 0 6 5 10 10 10 6 0 10 -4 10 -10z m2160 -30 c0 -11 -4 -20 -10
-20 -5 0 -10 9 -10 20 0 11 5 20 10 20 6 0 10 -9 10 -20z m-2560 -10 c0 -5 -4
-10 -10 -10 -5 0 -10 5 -10 10 0 6 5 10 10 10 6 0 10 -4 10 -10z m40 0 c0 -5
-4 -10 -10 -10 -5 0 -10 5 -10 10 0 6 5 10 10 10 6 0 10 -4 10 -10z m1226 -4
c10 -11 14 -43 14 -130 0 -108 -1 -116 -19 -116 -11 0 -21 -6 -24 -12 -3 -9
-11 -6 -24 10 -27 29 -33 28 -33 -8 0 -28 -2 -30 -40 -30 -46 0 -49 5 -18 31
l21 19 -23 20 -23 20 24 21 c16 15 20 23 12 26 -7 3 -13 13 -13 23 0 10 6 20
13 23 7 2 0 16 -21 35 -30 28 -32 33 -19 47 18 17 47 20 47 5 0 -5 7 -10 15
-10 9 0 32 -16 52 -36 27 -27 32 -38 23 -44 -11 -7 -10 -12 4 -25 9 -10 20
-14 24 -11 3 4 0 11 -8 17 -13 8 -13 10 -1 18 12 8 9 15 -18 40 l-32 30 23 25
c28 30 26 29 44 12z m-1386 -16 c0 -5 -4 -10 -10 -10 -5 0 -10 5 -10 10 0 6 5
10 10 10 6 0 10 -4 10 -10z m-40 -20 c0 -5 -4 -10 -10 -10 -5 0 -10 5 -10 10
0 6 5 10 10 10 6 0 10 -4 10 -10z m80 0 c0 -5 -4 -10 -10 -10 -5 0 -10 5 -10
10 0 6 5 10 10 10 6 0 10 -4 10 -10z m2120 -30 c0 -11 -4 -20 -10 -20 -5 0
-10 9 -10 20 0 11 5 20 10 20 6 0 10 -9 10 -20z m-1320 -10 c0 -5 -4 -10 -10
-10 -5 0 -10 5 -10 10 0 6 5 10 10 10 6 0 10 -4 10 -10z m-580 -76 c0 -3 -7
-12 -15 -21 -20 -19 -32 -10 -14 11 14 15 29 21 29 10z m-80 -24 c0 -5 -4 -10
-10 -10 -5 0 -10 5 -10 10 0 6 5 10 10 10 6 0 10 -4 10 -10z m500 -30 c0 -13
-7 -20 -20 -20 -23 0 -25 5 -7 25 17 20 27 18 27 -5z m476 -5 c22 -22 23 -27
10 -40 -20 -20 -26 -19 -26 5 0 22 -16 27 -22 8 -3 -9 -9 -8 -21 4 -22 22 -21
28 3 28 11 0 20 5 20 10 0 16 9 12 36 -15z m-976 -5 c0 -5 -4 -10 -10 -10 -5
0 -10 5 -10 10 0 6 5 10 10 10 6 0 10 -4 10 -10z m700 0 c0 -5 -4 -10 -10 -10
-5 0 -10 5 -10 10 0 6 5 10 10 10 6 0 10 -4 10 -10z m0 -60 c0 -5 -4 -10 -10
-10 -5 0 -10 5 -10 10 0 6 5 10 10 10 6 0 10 -4 10 -10z m206 -44 c19 -20 18
-26 -6 -26 -13 0 -20 7 -20 20 0 24 6 25 26 6z m374 -16 c0 -5 -4 -10 -10 -10
-5 0 -10 5 -10 10 0 6 5 10 10 10 6 0 10 -4 10 -10z m-620 -20 c0 -5 -4 -10
-10 -10 -5 0 -10 5 -10 10 0 6 5 10 10 10 6 0 10 -4 10 -10z"/>
<path d="M1200 5190 c0 -5 5 -10 10 -10 6 0 10 5 10 10 0 6 -4 10 -10 10 -5 0
-10 -4 -10 -10z"/>
<path d="M1580 5150 c0 -5 5 -10 10 -10 6 0 10 5 10 10 0 6 -4 10 -10 10 -5 0
-10 -4 -10 -10z"/>
<path d="M1375 5110 c-22 -34 -35 -38 -35 -13 0 14 -3 13 -20 -5 -12 -12 -28
-22 -36 -22 -8 0 -13 -4 -10 -9 10 -15 -22 -35 -37 -23 -10 8 -16 6 -26 -9 -7
-12 -9 -24 -5 -27 4 -4 9 -1 11 6 4 10 8 10 19 1 11 -9 18 -7 35 12 16 19 22
21 29 9 6 -10 18 -4 50 30 31 33 44 40 50 30 7 -11 11 -10 25 3 15 15 15 19 1
32 -21 21 -28 19 -51 -15z m45 0 c0 -5 -4 -10 -10 -10 -5 0 -10 5 -10 10 0 6
5 10 10 10 6 0 10 -4 10 -10z m-80 -36 c0 -3 -7 -12 -15 -21 -20 -19 -32 -10
-14 11 14 15 29 21 29 10z"/>
<path d="M1135 4970 c3 -5 10 -10 16 -10 5 0 9 5 9 10 0 6 -7 10 -16 10 -8 0
-12 -4 -9 -10z"/>
<path d="M924 4804 c-1 -13 2 -21 7 -18 11 6 12 31 2 37 -5 3 -9 -6 -9 -19z"/>
<path d="M957 4782 c-16 -18 -16 -20 -2 -26 9 -3 14 -10 11 -15 -3 -5 1 -14 8
-20 11 -10 17 -8 25 6 9 15 12 16 20 3 6 -8 13 -11 17 -7 7 7 -32 47 -47 47
-4 0 -9 7 -11 16 -3 14 -5 13 -21 -4z m37 -34 c-3 -5 -12 -2 -20 6 -20 21 -17
28 5 14 11 -7 17 -16 15 -20z"/>
<path d="M930 4740 c6 -11 13 -20 16 -20 2 0 0 9 -6 20 -6 11 -13 20 -16 20
-2 0 0 -9 6 -20z"/>
<path d="M807 4673 c-11 -10 -8 -35 3 -28 6 4 8 10 5 15 -3 5 3 11 12 13 14 4
15 5 2 6 -9 0 -19 -2 -22 -6z"/>
<path d="M800 4610 c0 -5 5 -10 11 -10 5 0 7 5 4 10 -3 6 -8 10 -11 10 -2 0
-4 -4 -4 -10z"/>
<path d="M1640 4870 c0 -5 5 -10 10 -10 6 0 10 5 10 10 0 6 -4 10 -10 10 -5 0
-10 -4 -10 -10z"/>
<path d="M520 4850 c0 -5 5 -10 10 -10 6 0 10 5 10 10 0 6 -4 10 -10 10 -5 0
-10 -4 -10 -10z"/>
<path d="M780 4530 c0 -5 5 -10 11 -10 5 0 7 5 4 10 -3 6 -8 10 -11 10 -2 0
-4 -4 -4 -10z"/>
<path d="M940 4270 c0 -5 5 -10 10 -10 6 0 10 5 10 10 0 6 -4 10 -10 10 -5 0
-10 -4 -10 -10z"/>
<path d="M360 4110 c0 -5 5 -10 10 -10 6 0 10 5 10 10 0 6 -4 10 -10 10 -5 0
-10 -4 -10 -10z"/>
<path d="M5160 3510 c0 -5 5 -10 10 -10 6 0 10 5 10 10 0 6 -4 10 -10 10 -5 0
-10 -4 -10 -10z"/>
<path d="M1620 2130 c0 -5 5 -10 10 -10 6 0 10 5 10 10 0 6 -4 10 -10 10 -5 0
-10 -4 -10 -10z"/>
<path d="M4840 990 c0 -5 5 -10 10 -10 6 0 10 5 10 10 0 6 -4 10 -10 10 -5 0
-10 -4 -10 -10z"/>
<path d="M4260 950 c0 -5 5 -10 10 -10 6 0 10 5 10 10 0 6 -4 10 -10 10 -5 0
-10 -4 -10 -10z"/>
<path d="M4720 950 c0 -5 5 -10 10 -10 6 0 10 5 10 10 0 6 -4 10 -10 10 -5 0
-10 -4 -10 -10z"/>
<path d="M5300 950 c0 -5 5 -10 10 -10 6 0 10 5 10 10 0 6 -4 10 -10 10 -5 0
-10 -4 -10 -10z"/>
<path d="M4900 930 c0 -5 5 -10 10 -10 6 0 10 5 10 10 0 6 -4 10 -10 10 -5 0
-10 -4 -10 -10z"/>
<path d="M4400 910 c0 -5 5 -10 10 -10 6 0 10 5 10 10 0 6 -4 10 -10 10 -5 0
-10 -4 -10 -10z"/>
<path d="M5180 910 c0 -5 5 -10 10 -10 6 0 10 5 10 10 0 6 -4 10 -10 10 -5 0
-10 -4 -10 -10z"/>
<path d="M5600 910 c0 -5 5 -10 10 -10 6 0 10 5 10 10 0 6 -4 10 -10 10 -5 0
-10 -4 -10 -10z"/>
<path d="M4100 890 c0 -5 5 -10 10 -10 6 0 10 5 10 10 0 6 -4 10 -10 10 -5 0
-10 -4 -10 -10z"/>
<path d="M4701 834 c-12 -14 -20 -28 -16 -32 3 -3 10 0 16 8 8 13 10 13 18 0
6 -8 13 -11 18 -7 4 5 1 13 -7 18 -11 8 -12 12 -2 16 13 5 17 23 5 22 -5 0
-19 -11 -32 -25z"/>
<path d="M4927 778 c-30 -32 -41 -38 -47 -28 -5 8 -12 11 -16 7 -4 -4 3 -16
17 -27 20 -18 21 -23 9 -31 -13 -8 -13 -10 0 -19 13 -8 13 -11 1 -19 -11 -7
-9 -14 13 -35 l26 -27 27 27 c18 18 23 29 15 32 -19 6 -14 22 8 22 11 0 20 -7
20 -15 0 -21 92 -113 98 -97 7 21 42 14 42 -8 0 -13 7 -20 19 -20 11 0 21 -6
24 -12 2 -7 8 -9 13 -5 5 4 2 12 -5 16 -11 7 -5 18 24 47 23 23 40 33 43 26 5
-16 39 -16 45 1 2 7 16 -1 37 -23 21 -22 35 -30 37 -22 3 6 13 12 24 12 10 0
19 5 19 10 0 6 -4 10 -10 10 -5 0 -10 9 -10 19 0 11 -6 22 -12 24 -10 4 -10 8
1 15 11 8 9 15 -13 37 l-27 26 -28 -30 c-34 -37 -47 -38 -73 -9 -15 18 -21 20
-28 8 -6 -10 -17 -4 -48 28 -22 23 -47 42 -55 42 -9 0 -17 6 -20 13 -2 7 -16
0 -35 -21 -28 -30 -33 -32 -47 -19 -18 19 -20 44 -3 49 9 3 8 9 -4 21 -25 25
-39 20 -81 -25z m53 -8 c0 -5 -4 -10 -10 -10 -5 0 -10 5 -10 10 0 6 5 10 10
10 6 0 10 -4 10 -10z m-30 -30 c8 -11 22 -20 32 -20 10 0 18 -4 18 -10 0 -21
33 -9 63 23 19 20 32 27 34 20 3 -7 11 -13 20 -13 8 0 33 -19 55 -42 31 -32
42 -38 48 -28 7 12 13 10 28 -8 26 -29 39 -28 73 9 27 29 30 30 45 14 15 -14
15 -18 3 -26 -12 -8 -12 -10 1 -19 13 -9 13 -11 0 -20 -13 -9 -13 -11 0 -19 8
-6 11 -13 8 -17 -4 -4 -22 8 -39 27 -20 21 -34 29 -36 22 -6 -17 -40 -17 -46
0 -2 7 -20 -5 -46 -32 l-42 -43 -18 21 c-20 23 -47 28 -53 9 -5 -14 -78 55
-78 72 0 15 -25 40 -40 40 -6 0 -19 -7 -27 -16 -13 -13 -14 -17 -3 -24 11 -7
10 -11 -3 -25 -16 -15 -18 -15 -34 0 -14 14 -14 18 -2 26 12 8 12 10 -1 19
-13 9 -13 11 0 20 13 8 13 11 1 19 -12 8 -12 11 0 25 18 20 22 20 39 -4z"/>
<path d="M4920 731 c0 -5 6 -12 13 -14 9 -4 8 -8 -3 -16 -8 -5 -11 -13 -8 -17
4 -3 14 1 23 10 15 14 15 18 1 31 -17 17 -26 19 -26 6z"/>
<path d="M5061 713 c-19 -20 -21 -27 -10 -34 12 -8 12 -10 0 -18 -11 -7 -8
-15 14 -37 18 -18 30 -24 33 -16 6 19 33 14 53 -9 l18 -21 36 37 c21 20 34 39
30 43 -3 3 -10 0 -15 -7 -6 -11 -17 -5 -48 27 -22 23 -48 42 -56 42 -9 0 -16
5 -16 10 0 16 -13 10 -39 -17z m39 -3 c0 -5 7 -10 15 -10 9 0 32 -16 51 -35
32 -32 34 -37 19 -51 -14 -15 -17 -14 -34 5 -20 23 -47 28 -53 9 -3 -9 -10 -8
-23 5 -15 16 -16 20 -4 28 12 8 12 10 0 18 -12 8 -12 11 0 25 16 18 29 20 29
6z"/>
<path d="M5080 691 c0 -5 6 -12 13 -14 9 -4 8 -8 -3 -16 -8 -5 -11 -14 -6 -18
5 -4 11 -2 13 5 7 19 34 14 54 -10 11 -11 22 -19 25 -15 9 9 -42 57 -61 57 -8
0 -15 5 -15 10 0 6 -4 10 -10 10 -5 0 -10 -4 -10 -9z"/>
<path d="M5332 664 c-11 -12 -10 -17 3 -30 9 -9 19 -13 23 -10 3 4 0 12 -8 17
-11 8 -12 12 -2 16 13 5 17 23 5 23 -5 -1 -14 -7 -21 -16z"/>
<path d="M4920 650 c0 -5 5 -10 10 -10 6 0 10 5 10 10 0 6 -4 10 -10 10 -5 0
-10 -4 -10 -10z"/>
<path d="M5231 764 c-18 -21 -6 -30 14 -11 8 9 15 18 15 21 0 11 -15 5 -29
-10z"/>
<path d="M5530 700 c-8 -11 -22 -20 -32 -20 -10 0 -18 -4 -18 -10 0 -5 5 -10
10 -10 6 0 10 -12 10 -26 0 -33 28 -64 40 -43 7 11 13 9 28 -9 11 -12 27 -22
36 -22 11 0 16 -9 16 -30 0 -23 4 -30 20 -30 11 0 20 5 20 10 0 6 -4 10 -10
10 -5 0 -10 14 -10 30 0 17 5 30 10 30 6 0 10 12 10 26 0 33 28 64 40 43 5 -7
12 -10 16 -7 3 4 -1 15 -11 24 -14 15 -18 15 -26 3 -8 -12 -10 -12 -19 1 -9
13 -11 13 -21 0 -8 -11 -12 -12 -16 -2 -2 6 -12 12 -22 12 -9 0 -23 9 -31 20
-8 11 -17 20 -20 20 -3 0 -12 -9 -20 -20z m30 -30 c0 -5 -4 -10 -10 -10 -5 0
-10 -13 -10 -30 0 -16 -4 -30 -10 -30 -5 0 -10 18 -10 40 0 33 3 40 20 40 11
0 20 -4 20 -10z m63 -22 c4 -10 8 -9 16 2 5 8 13 11 17 7 4 -4 -3 -16 -17 -27
-19 -17 -21 -23 -9 -30 8 -5 11 -12 7 -17 -5 -4 -12 -1 -18 7 -8 13 -10 13
-18 1 -8 -12 -12 -12 -25 2 -19 19 -20 33 -3 52 15 18 44 19 50 3z"/>
<path d="M5591 624 c-18 -21 -6 -30 14 -11 8 9 15 18 15 21 0 11 -15 5 -29
-10z"/>
<path d="M4540 670 c0 -23 -5 -30 -19 -30 -11 0 -21 5 -23 12 -6 16 -98 -76
-98 -97 0 -8 5 -15 10 -15 6 0 10 -4 10 -10 0 -5 -9 -10 -20 -10 -13 0 -20 -7
-20 -20 0 -11 2 -20 5 -20 10 0 75 69 75 80 0 16 47 60 64 60 8 0 17 -6 19
-12 4 -10 8 -10 15 1 8 11 15 9 36 -12 14 -14 26 -31 26 -37 0 -17 26 -40 44
-40 21 0 21 46 0 67 -13 13 -17 14 -24 3 -7 -11 -12 -10 -26 4 -14 14 -15 19
-4 26 11 7 10 12 -5 27 -13 13 -20 14 -23 5 -7 -23 -22 -12 -22 18 0 17 -4 30
-10 30 -5 0 -10 -13 -10 -30z m-40 -36 c0 -3 -13 -19 -30 -34 -16 -15 -30 -35
-30 -44 0 -9 -4 -16 -10 -16 -20 0 -9 31 23 65 30 32 47 42 47 29z m60 -4 c0
-5 -4 -10 -10 -10 -5 0 -10 5 -10 10 0 6 5 10 10 10 6 0 10 -4 10 -10z m40 0
c0 -5 -4 -10 -10 -10 -5 0 -10 5 -10 10 0 6 5 10 10 10 6 0 10 -4 10 -10z m60
-70 c0 -11 -4 -20 -10 -20 -5 0 -10 9 -10 20 0 11 5 20 10 20 6 0 10 -9 10
-20z"/>
<path d="M5920 610 c0 -5 5 -10 10 -10 6 0 10 5 10 10 0 6 -4 10 -10 10 -5 0
-10 -4 -10 -10z"/>
<path d="M5911 524 c-18 -21 -6 -30 14 -11 8 9 15 18 15 21 0 11 -15 5 -29
-10z"/>
<path d="M5780 510 c0 -5 5 -10 10 -10 6 0 10 5 10 10 0 6 -4 10 -10 10 -5 0
-10 -4 -10 -10z"/>
<path d="M5920 810 c0 -5 5 -10 10 -10 6 0 10 5 10 10 0 6 -4 10 -10 10 -5 0
-10 -4 -10 -10z"/>
<path d="M3600 770 c0 -5 5 -10 10 -10 6 0 10 5 10 10 0 6 -4 10 -10 10 -5 0
-10 -4 -10 -10z"/>
<path d="M3720 770 c0 -5 5 -10 10 -10 6 0 10 5 10 10 0 6 -4 10 -10 10 -5 0
-10 -4 -10 -10z"/>
<path d="M3860 714 c0 -10 31 -36 37 -31 3 3 -2 13 -10 22 -16 15 -27 19 -27
9z"/>
<path d="M3960 680 c0 -11 -4 -20 -10 -20 -5 0 -10 -9 -10 -20 0 -11 -4 -20
-10 -20 -5 0 -10 9 -10 20 0 23 -25 27 -46 6 -21 -21 -18 -26 16 -26 23 0 30
-4 30 -20 0 -11 5 -20 10 -20 14 0 12 -38 -2 -43 -7 -2 -10 -8 -6 -12 9 -10
38 19 38 39 0 9 5 16 10 16 6 0 10 -9 10 -20 0 -11 5 -20 10 -20 6 0 10 9 10
20 0 11 5 20 10 20 6 0 10 9 10 20 0 11 5 20 10 20 6 0 10 -9 10 -20 0 -13 7
-20 20 -20 13 0 20 7 20 20 0 11 5 20 10 20 6 0 10 -9 10 -20 0 -11 5 -20 10
-20 6 0 10 9 10 20 0 11 5 20 10 20 6 0 10 -9 10 -20 0 -11 5 -20 10 -20 6 0
10 -9 10 -20 0 -22 15 -27 24 -7 5 10 7 10 12 0 9 -20 24 -15 24 7 0 11 5 20
10 20 6 0 10 9 10 20 0 11 -4 20 -10 20 -5 0 -10 -9 -10 -20 0 -16 -7 -20 -30
-20 -23 0 -30 4 -30 20 0 11 -4 20 -10 20 -5 0 -10 9 -10 20 0 11 5 20 10 20
6 0 10 5 10 10 0 6 -9 10 -19 10 -11 0 -22 6 -24 13 -4 9 -8 8 -17 -3 -9 -11
-13 -12 -17 -2 -8 20 -43 14 -43 -8 0 -11 -4 -20 -10 -20 -5 0 -10 -9 -10 -20
0 -11 -4 -20 -10 -20 -5 0 -10 9 -10 20 0 11 -4 20 -10 20 -5 0 -10 9 -10 20
0 11 -4 20 -10 20 -5 0 -10 -9 -10 -20z m160 -30 c0 -16 -4 -30 -10 -30 -5 0
-10 14 -10 30 0 17 5 30 10 30 6 0 10 -13 10 -30z m-140 -10 c0 -11 5 -20 10
-20 6 0 10 -9 10 -20 0 -11 -4 -20 -10 -20 -5 0 -10 9 -10 20 0 11 -4 20 -10
20 -5 0 -10 -9 -10 -20 0 -11 -4 -20 -10 -20 -5 0 -10 9 -10 20 0 11 5 20 10
20 6 0 10 9 10 20 0 11 5 20 10 20 6 0 10 -9 10 -20z m100 0 c0 -13 -7 -20
-20 -20 -13 0 -20 7 -20 20 0 13 7 20 20 20 13 0 20 -7 20 -20z"/>
<path d="M3740 655 c0 -11 51 -57 57 -52 3 3 -6 17 -20 31 -25 25 -37 32 -37
21z"/>
<path d="M4180 610 c0 -5 5 -10 10 -10 6 0 10 5 10 10 0 6 -4 10 -10 10 -5 0
-10 -4 -10 -10z"/>
<path d="M3820 570 c0 -5 5 -10 10 -10 18 0 11 -32 -12 -51 -11 -11 -18 -22
-14 -26 4 -4 11 -1 17 7 8 13 10 13 18 0 6 -8 13 -11 18 -7 4 5 1 13 -7 18
-11 8 -12 12 -2 16 16 6 15 31 -2 49 -17 16 -26 18 -26 4z"/>
<path d="M3660 504 c0 -22 -32 -53 -38 -36 -6 18 -42 15 -42 -4 0 -8 -18 -33
-40 -54 -38 -36 -52 -70 -30 -70 6 0 10 9 10 20 0 11 5 20 10 20 6 0 10 -9 10
-20 0 -11 5 -20 10 -20 6 0 10 -9 10 -20 0 -11 5 -20 10 -20 6 0 10 9 10 20 0
26 8 25 31 -2 11 -11 22 -18 26 -14 4 4 1 12 -7 17 -11 8 -12 12 -2 16 6 2 12
11 12 20 0 8 19 32 41 54 l41 40 -21 18 c-11 10 -21 26 -21 35 0 9 -4 16 -10
16 -5 0 -10 -7 -10 -16z m26 -39 c14 -13 11 -19 -25 -54 -23 -22 -41 -47 -41
-55 0 -19 -16 -21 -24 -3 -5 10 -7 10 -12 0 -9 -20 -24 -15 -24 6 0 11 -5 21
-12 23 -20 7 38 58 64 58 13 0 30 9 38 20 17 24 17 24 36 5z"/>
<path d="M3637 428 c-22 -25 -30 -29 -37 -18 -7 11 -11 10 -24 -3 -22 -22 -20
-27 9 -27 22 0 95 57 95 75 0 13 -17 2 -43 -27z"/>
<path d="M3760 450 c0 -5 5 -10 10 -10 6 0 10 5 10 10 0 6 -4 10 -10 10 -5 0
-10 -4 -10 -10z"/>
<path d="M3760 410 c0 -5 5 -10 10 -10 6 0 10 5 10 10 0 6 -4 10 -10 10 -5 0
-10 -4 -10 -10z"/>
<path d="M3800 290 c0 -5 5 -10 10 -10 6 0 10 5 10 10 0 6 -4 10 -10 10 -5 0
-10 -4 -10 -10z"/>
<path d="M4740 674 c0 -3 7 -12 15 -20 13 -14 17 -14 31 1 9 9 13 19 10 23 -4
3 -12 0 -17 -8 -8 -11 -12 -12 -16 -2 -5 12 -23 17 -23 6z"/>
<path d="M3100 510 c0 -5 5 -10 10 -10 6 0 10 5 10 10 0 6 -4 10 -10 10 -5 0
-10 -4 -10 -10z"/>
<path d="M4240 470 c0 -5 5 -10 10 -10 6 0 10 5 10 10 0 6 -4 10 -10 10 -5 0
-10 -4 -10 -10z"/>
<path d="M4160 354 c0 -3 14 -19 32 -36 25 -23 29 -31 18 -38 -8 -5 -11 -12
-8 -16 4 -3 14 1 23 10 15 14 13 19 -19 51 -34 34 -46 41 -46 29z"/>
<path d="M4280 350 c0 -5 5 -10 10 -10 6 0 10 5 10 10 0 6 -4 10 -10 10 -5 0
-10 -4 -10 -10z"/>
<path d="M4200 230 c0 -5 5 -10 10 -10 6 0 10 5 10 10 0 6 -4 10 -10 10 -5 0
-10 -4 -10 -10z"/>
<path d="M4240 230 c0 -5 5 -10 10 -10 6 0 10 5 10 10 0 6 -4 10 -10 10 -5 0
-10 -4 -10 -10z"/>
<path d="M4180 190 c0 -5 5 -10 10 -10 6 0 10 5 10 10 0 6 -4 10 -10 10 -5 0
-10 -4 -10 -10z"/>
<path d="M4220 190 c0 -5 5 -10 10 -10 6 0 10 5 10 10 0 6 -4 10 -10 10 -5 0
-10 -4 -10 -10z"/>
<path d="M4260 194 c0 -10 31 -36 37 -31 3 3 -2 13 -10 22 -16 15 -27 19 -27
9z"/>
<path d="M5280 490 c0 -5 5 -10 10 -10 6 0 10 5 10 10 0 6 -4 10 -10 10 -5 0
-10 -4 -10 -10z"/>
<path d="M4820 470 c0 -5 9 -10 20 -10 22 0 27 -15 8 -23 -10 -4 -9 -8 2 -17
11 -9 12 -13 3 -17 -7 -2 -13 -13 -13 -24 0 -21 -16 -26 -22 -7 -3 9 -10 8
-22 -5 -10 -10 -15 -21 -12 -25 4 -3 11 0 17 8 8 13 10 13 18 1 8 -12 12 -12
25 2 9 8 16 23 16 31 0 9 8 16 20 16 11 0 20 -4 20 -10 0 -5 9 -10 19 -10 11
0 21 -5 23 -12 3 -7 20 3 43 26 30 30 35 40 24 47 -12 8 -12 10 1 18 8 6 11
13 7 18 -5 4 -12 1 -18 -7 -8 -13 -10 -13 -19 0 -9 13 -11 13 -21 0 -8 -11
-12 -12 -16 -2 -2 6 -17 12 -33 12 -16 0 -31 -6 -34 -12 -5 -10 -7 -10 -12 0
-7 14 -44 16 -44 2z m123 -22 c4 -10 8 -10 15 1 9 12 13 12 27 -2 15 -16 15
-18 0 -34 -14 -14 -18 -14 -27 -2 -7 11 -11 11 -15 2 -8 -20 -23 -15 -23 7 0
11 -4 20 -10 20 -5 0 -10 -4 -10 -10 0 -5 -9 -10 -20 -10 -23 0 -25 5 -7 25
15 18 64 19 70 3z"/>
<path d="M4960 430 c0 -5 5 -10 10 -10 6 0 10 5 10 10 0 6 -4 10 -10 10 -5 0
-10 -4 -10 -10z"/>
<path d="M5240 470 c0 -5 5 -10 10 -10 6 0 10 5 10 10 0 6 -4 10 -10 10 -5 0
-10 -4 -10 -10z"/>
<path d="M5351 464 c-7 -8 -10 -18 -6 -22 3 -3 10 0 16 8 8 13 10 13 18 0 6
-8 13 -11 17 -8 3 4 -1 14 -9 23 -19 18 -19 18 -36 -1z"/>
<path d="M5300 450 c0 -5 5 -10 10 -10 6 0 10 5 10 10 0 6 -4 10 -10 10 -5 0
-10 -4 -10 -10z"/>
<path d="M5471 424 c-18 -21 -6 -30 14 -11 8 9 15 18 15 21 0 11 -15 5 -29
-10z"/>
<path d="M5740 430 c0 -5 5 -10 10 -10 6 0 10 5 10 10 0 6 -4 10 -10 10 -5 0
-10 -4 -10 -10z"/>
<path d="M5900 430 c0 -5 5 -10 10 -10 6 0 10 5 10 10 0 6 -4 10 -10 10 -5 0
-10 -4 -10 -10z"/>
<path d="M4480 400 c0 -13 -7 -20 -20 -20 -11 0 -20 -4 -20 -10 0 -18 32 -10
52 12 16 19 21 20 28 8 5 -8 12 -11 16 -8 9 10 -21 38 -40 38 -9 0 -16 -8 -16
-20z"/>
<path d="M5331 404 c-18 -21 -6 -30 14 -11 8 9 15 18 15 21 0 11 -15 5 -29
-10z"/>
<path d="M5380 410 c0 -5 5 -10 10 -10 6 0 10 5 10 10 0 6 -4 10 -10 10 -5 0
-10 -4 -10 -10z"/>
<path d="M5660 400 c0 -11 5 -20 10 -20 6 0 10 9 10 20 0 11 -4 20 -10 20 -5
0 -10 -9 -10 -20z"/>
<path d="M5700 400 c0 -11 5 -20 10 -20 6 0 10 9 10 20 0 11 -4 20 -10 20 -5
0 -10 -9 -10 -20z"/>
<path d="M4640 390 c0 -5 5 -10 10 -10 6 0 10 5 10 10 0 6 -4 10 -10 10 -5 0
-10 -4 -10 -10z"/>
<path d="M4691 384 c-18 -21 -6 -30 14 -11 8 9 15 18 15 21 0 11 -15 5 -29
-10z"/>
<path d="M4400 361 c0 -11 -6 -21 -12 -24 -9 -3 -5 -12 12 -26 19 -18 22 -24
11 -31 -12 -7 -11 -11 3 -25 9 -10 20 -14 24 -11 3 4 0 11 -8 17 -13 8 -13 10
0 18 12 8 10 13 -10 32 -17 14 -21 23 -12 26 14 5 16 43 2 43 -5 0 -10 -9 -10
-19z"/>
<path d="M4591 364 c-18 -21 -6 -30 14 -11 8 9 15 18 15 21 0 11 -15 5 -29
-10z"/>
<path d="M5432 364 c-11 -12 -10 -17 3 -30 9 -9 19 -13 23 -10 3 4 0 12 -8 17
-11 8 -12 12 -2 16 13 5 17 23 5 23 -5 -1 -14 -7 -21 -16z"/>
<path d="M5480 370 c0 -5 5 -10 10 -10 6 0 10 5 10 10 0 6 -4 10 -10 10 -5 0
-10 -4 -10 -10z"/>
<path d="M5520 370 c0 -5 5 -10 10 -10 6 0 10 5 10 10 0 6 -4 10 -10 10 -5 0
-10 -4 -10 -10z"/>
<path d="M5740 370 c0 -5 5 -10 10 -10 6 0 10 5 10 10 0 6 -4 10 -10 10 -5 0
-10 -4 -10 -10z"/>
<path d="M5851 364 c-18 -21 -6 -30 14 -11 8 9 15 18 15 21 0 11 -15 5 -29
-10z"/>
<path d="M5900 370 c0 -5 5 -10 10 -10 6 0 10 5 10 10 0 6 -4 10 -10 10 -5 0
-10 -4 -10 -10z"/>
<path d="M4492 344 c-12 -13 -10 -18 10 -36 15 -14 19 -22 11 -25 -15 -5 -17
-43 -3 -43 6 0 10 9 10 19 0 11 6 22 13 24 9 4 8 8 -3 16 -12 8 -11 13 9 31
14 11 21 23 17 27 -4 4 -12 1 -17 -7 -8 -11 -12 -12 -16 -2 -6 16 -15 15 -31
-4z m28 -14 c0 -5 -4 -10 -10 -10 -5 0 -10 5 -10 10 0 6 5 10 10 10 6 0 10 -4
10 -10z"/>
<path d="M4640 354 c0 -10 31 -36 37 -31 3 3 -2 13 -10 22 -16 15 -27 19 -27
9z"/>
<path d="M4740 350 c0 -5 5 -10 10 -10 6 0 10 5 10 10 0 6 -4 10 -10 10 -5 0
-10 -4 -10 -10z"/>
<path d="M4871 344 c-18 -21 -6 -30 14 -11 8 9 15 18 15 21 0 11 -15 5 -29
-10z"/>
<path d="M5651 344 c-18 -21 -6 -30 14 -11 8 9 15 18 15 21 0 11 -15 5 -29
-10z"/>
<path d="M5700 350 c0 -5 5 -10 10 -10 6 0 10 5 10 10 0 6 -4 10 -10 10 -5 0
-10 -4 -10 -10z"/>
<path d="M5800 350 c0 -5 5 -10 10 -10 6 0 10 5 10 10 0 6 -4 10 -10 10 -5 0
-10 -4 -10 -10z"/>
<path d="M4440 330 c0 -5 5 -10 10 -10 6 0 10 5 10 10 0 6 -4 10 -10 10 -5 0
-10 -4 -10 -10z"/>
<path d="M4700 330 c0 -5 5 -10 10 -10 6 0 10 5 10 10 0 6 -4 10 -10 10 -5 0
-10 -4 -10 -10z"/>
<path d="M4920 330 c0 -5 5 -10 10 -10 6 0 10 5 10 10 0 6 -4 10 -10 10 -5 0
-10 -4 -10 -10z"/>
<path d="M4960 330 c0 -5 5 -10 10 -10 6 0 10 5 10 10 0 6 -4 10 -10 10 -5 0
-10 -4 -10 -10z"/>
<path d="M5220 330 c0 -5 5 -10 10 -10 6 0 10 5 10 10 0 6 -4 10 -10 10 -5 0
-10 -4 -10 -10z"/>
<path d="M5380 330 c0 -5 5 -10 10 -10 6 0 10 5 10 10 0 6 -4 10 -10 10 -5 0
-10 -4 -10 -10z"/>
<path d="M5500 330 c0 -5 5 -10 10 -10 6 0 10 5 10 10 0 6 -4 10 -10 10 -5 0
-10 -4 -10 -10z"/>
<path d="M5540 330 c0 -5 5 -10 10 -10 6 0 10 5 10 10 0 6 -4 10 -10 10 -5 0
-10 -4 -10 -10z"/>
<path d="M5760 334 c0 -10 31 -36 37 -31 3 3 -2 13 -10 22 -16 15 -27 19 -27
9z"/>
<path d="M5880 330 c0 -5 5 -10 10 -10 6 0 10 5 10 10 0 6 -4 10 -10 10 -5 0
-10 -4 -10 -10z"/>
<path d="M5980 330 c0 -5 5 -10 10 -10 6 0 10 5 10 10 0 6 -4 10 -10 10 -5 0
-10 -4 -10 -10z"/>
<path d="M4560 310 c0 -5 5 -10 10 -10 6 0 10 5 10 10 0 6 -4 10 -10 10 -5 0
-10 -4 -10 -10z"/>
<path d="M4600 310 c0 -5 5 -10 10 -10 6 0 10 5 10 10 0 6 -4 10 -10 10 -5 0
-10 -4 -10 -10z"/>
<path d="M4760 310 c0 -5 5 -10 10 -10 6 0 10 5 10 10 0 6 -4 10 -10 10 -5 0
-10 -4 -10 -10z"/>
<path d="M5320 310 c0 -5 5 -10 10 -10 6 0 10 5 10 10 0 6 -4 10 -10 10 -5 0
-10 -4 -10 -10z"/>
<path d="M5600 310 c0 -5 5 -10 10 -10 6 0 10 5 10 10 0 6 -4 10 -10 10 -5 0
-10 -4 -10 -10z"/>
<path d="M5680 310 c0 -5 5 -10 10 -10 6 0 10 5 10 10 0 6 -4 10 -10 10 -5 0
-10 -4 -10 -10z"/>
<path d="M5720 314 c0 -10 31 -36 37 -31 3 3 -2 13 -10 22 -16 15 -27 19 -27
9z"/>
<path d="M5820 310 c0 -5 5 -10 10 -10 6 0 10 5 10 10 0 6 -4 10 -10 10 -5 0
-10 -4 -10 -10z"/>
<path d="M4460 290 c0 -5 5 -10 10 -10 6 0 10 5 10 10 0 6 -4 10 -10 10 -5 0
-10 -4 -10 -10z"/>
<path d="M4640 290 c0 -5 9 -10 20 -10 11 0 20 5 20 10 0 6 -9 10 -20 10 -11
0 -20 -4 -20 -10z"/>
<path d="M4720 290 c0 -5 5 -10 10 -10 6 0 10 5 10 10 0 6 -4 10 -10 10 -5 0
-10 -4 -10 -10z"/>
<path d="M4811 284 c-18 -21 -6 -30 14 -11 8 9 15 18 15 21 0 11 -15 5 -29
-10z"/>
<path d="M4880 290 c0 -5 5 -10 10 -10 6 0 10 5 10 10 0 6 -4 10 -10 10 -5 0
-10 -4 -10 -10z"/>
<path d="M5160 290 c0 -5 9 -10 19 -10 11 0 21 -6 24 -12 2 -7 8 -10 12 -6 10
9 -19 38 -39 38 -9 0 -16 -4 -16 -10z"/>
<path d="M5400 290 c0 -5 5 -10 10 -10 6 0 10 5 10 10 0 6 -4 10 -10 10 -5 0
-10 -4 -10 -10z"/>
<path d="M5480 290 c0 -5 5 -10 10 -10 6 0 10 5 10 10 0 6 -4 10 -10 10 -5 0
-10 -4 -10 -10z"/>
<path d="M5847 277 c-14 -18 -19 -19 -26 -8 -8 12 -12 12 -26 -3 -10 -9 -14
-20 -11 -24 4 -3 11 0 17 8 8 13 10 13 18 1 7 -11 14 -9 35 12 14 14 26 29 26
32 0 12 -16 3 -33 -18z"/>
<path d="M5900 290 c0 -5 5 -10 10 -10 6 0 10 5 10 10 0 6 -4 10 -10 10 -5 0
-10 -4 -10 -10z"/>
<path d="M4600 274 c0 -10 31 -36 37 -31 3 3 -2 13 -10 22 -16 15 -27 19 -27
9z"/>
<path d="M4920 270 c0 -5 5 -10 10 -10 6 0 10 5 10 10 0 6 -4 10 -10 10 -5 0
-10 -4 -10 -10z"/>
<path d="M4960 270 c0 -5 5 -10 10 -10 6 0 10 5 10 10 0 6 -4 10 -10 10 -5 0
-10 -4 -10 -10z"/>
<path d="M5260 270 c0 -5 5 -10 10 -10 6 0 10 5 10 10 0 6 -4 10 -10 10 -5 0
-10 -4 -10 -10z"/>
<path d="M5540 270 c0 -5 5 -10 10 -10 6 0 10 5 10 10 0 6 -4 10 -10 10 -5 0
-10 -4 -10 -10z"/>
<path d="M5580 270 c0 -5 5 -10 10 -10 6 0 10 5 10 10 0 6 -4 10 -10 10 -5 0
-10 -4 -10 -10z"/>
<path d="M5660 274 c0 -3 7 -13 16 -21 13 -13 17 -14 24 -3 7 11 12 10 26 -4
14 -14 15 -19 4 -26 -11 -7 -10 -12 4 -25 9 -10 20 -14 24 -11 3 4 0 11 -8 17
-13 8 -13 10 -1 18 11 7 9 14 -14 36 -22 23 -29 25 -37 14 -7 -11 -11 -11 -15
-1 -5 12 -23 17 -23 6z"/>
<path d="M5940 260 c0 -11 5 -20 10 -20 6 0 10 9 10 20 0 11 -4 20 -10 20 -5
0 -10 -9 -10 -20z"/>
<path d="M4720 250 c0 -5 5 -10 10 -10 6 0 10 5 10 10 0 6 -4 10 -10 10 -5 0
-10 -4 -10 -10z"/>
<path d="M5420 250 c0 -5 5 -10 10 -10 6 0 10 5 10 10 0 6 -4 10 -10 10 -5 0
-10 -4 -10 -10z"/>
<path d="M4460 230 c0 -5 5 -10 10 -10 6 0 10 5 10 10 0 6 -4 10 -10 10 -5 0
-10 -4 -10 -10z"/>
<path d="M4540 230 c0 -5 -9 -10 -20 -10 -11 0 -20 -4 -20 -10 0 -15 29 -12
46 4 16 17 18 26 4 26 -5 0 -10 -4 -10 -10z"/>
<path d="M4580 230 c0 -5 5 -10 10 -10 6 0 10 5 10 10 0 6 -4 10 -10 10 -5 0
-10 -4 -10 -10z"/>
<path d="M4800 230 c0 -5 5 -10 10 -10 6 0 10 5 10 10 0 6 -4 10 -10 10 -5 0
-10 -4 -10 -10z"/>
<path d="M4900 230 c0 -5 5 -10 10 -10 6 0 10 5 10 10 0 6 -4 10 -10 10 -5 0
-10 -4 -10 -10z"/>
<path d="M4960 230 c0 -5 5 -10 10 -10 6 0 10 5 10 10 0 6 -4 10 -10 10 -5 0
-10 -4 -10 -10z"/>
<path d="M5620 230 c0 -5 5 -10 10 -10 6 0 10 5 10 10 0 6 -4 10 -10 10 -5 0
-10 -4 -10 -10z"/>
<path d="M5860 230 c0 -5 5 -10 10 -10 6 0 10 5 10 10 0 6 -4 10 -10 10 -5 0
-10 -4 -10 -10z"/>
<path d="M5900 230 c0 -5 5 -10 10 -10 6 0 10 5 10 10 0 6 -4 10 -10 10 -5 0
-10 -4 -10 -10z"/>
<path d="M4380 210 c0 -5 5 -10 10 -10 6 0 10 5 10 10 0 6 -4 10 -10 10 -5 0
-10 -4 -10 -10z"/>
<path d="M4420 210 c0 -5 5 -10 10 -10 6 0 10 5 10 10 0 6 -4 10 -10 10 -5 0
-10 -4 -10 -10z"/>
<path d="M4700 210 c0 -5 5 -10 10 -10 6 0 10 5 10 10 0 6 -4 10 -10 10 -5 0
-10 -4 -10 -10z"/>
<path d="M4760 210 c0 -5 5 -10 10 -10 6 0 10 5 10 10 0 6 -4 10 -10 10 -5 0
-10 -4 -10 -10z"/>
<path d="M4860 210 c0 -5 5 -10 10 -10 6 0 10 5 10 10 0 6 -4 10 -10 10 -5 0
-10 -4 -10 -10z"/>
<path d="M5000 210 c0 -5 5 -10 10 -10 6 0 10 5 10 10 0 6 -4 10 -10 10 -5 0
-10 -4 -10 -10z"/>
<path d="M5260 210 c0 -5 18 -10 40 -10 38 0 54 -13 28 -23 -7 -2 -9 -8 -5
-13 4 -5 12 -2 17 5 6 11 13 8 34 -12 23 -23 26 -34 26 -92 0 -37 4 -65 10
-65 6 0 10 30 10 70 0 63 11 91 23 58 2 -7 8 -9 13 -5 5 4 2 12 -5 17 -12 7
-11 11 4 27 13 13 20 14 23 5 2 -6 12 -12 23 -12 10 0 19 -4 19 -10 0 -5 9
-10 20 -10 11 0 20 5 20 10 0 6 -9 10 -20 10 -11 0 -20 5 -20 10 0 6 -9 10
-20 10 -11 0 -20 5 -20 10 0 6 18 10 40 10 22 0 40 5 40 10 0 6 -18 10 -40 10
-22 0 -40 -4 -40 -10 0 -6 -30 -10 -70 -10 -40 0 -70 4 -70 10 0 6 -18 10 -40
10 -22 0 -40 -4 -40 -10z m160 -50 c0 -11 -4 -20 -10 -20 -5 0 -10 9 -10 20 0
11 5 20 10 20 6 0 10 -9 10 -20z"/>
<path d="M5780 210 c0 -5 5 -10 10 -10 6 0 10 5 10 10 0 6 -4 10 -10 10 -5 0
-10 -4 -10 -10z"/>
<path d="M5820 210 c0 -5 5 -10 10 -10 6 0 10 5 10 10 0 6 -4 10 -10 10 -5 0
-10 -4 -10 -10z"/>
<path d="M5960 214 c0 -10 31 -36 37 -31 3 3 -2 13 -10 22 -16 15 -27 19 -27
9z"/>
<path d="M4460 190 c0 -5 5 -10 10 -10 6 0 10 5 10 10 0 6 -4 10 -10 10 -5 0
-10 -4 -10 -10z"/>
<path d="M4580 190 c0 -5 5 -10 10 -10 6 0 10 5 10 10 0 6 -4 10 -10 10 -5 0
-10 -4 -10 -10z"/>
<path d="M4640 190 c0 -5 9 -10 20 -10 11 0 20 5 20 10 0 6 -9 10 -20 10 -11
0 -20 -4 -20 -10z"/>
<path d="M4820 190 c0 -5 5 -10 10 -10 6 0 10 5 10 10 0 6 -4 10 -10 10 -5 0
-10 -4 -10 -10z"/>
<path d="M5660 190 c0 -5 5 -10 10 -10 6 0 10 5 10 10 0 6 -4 10 -10 10 -5 0
-10 -4 -10 -10z"/>
<path d="M5850 180 c-8 -11 -22 -20 -32 -20 -10 0 -18 -4 -18 -10 0 -18 31
-10 55 15 14 13 25 27 25 30 0 12 -16 4 -30 -15z"/>
<path d="M5920 194 c0 -10 31 -36 37 -31 3 3 -2 13 -10 22 -16 15 -27 19 -27
9z"/>
<path d="M4380 170 c0 -5 5 -10 10 -10 6 0 10 5 10 10 0 6 -4 10 -10 10 -5 0
-10 -4 -10 -10z"/>
<path d="M4420 170 c0 -5 5 -10 10 -10 6 0 10 5 10 10 0 6 -4 10 -10 10 -5 0
-10 -4 -10 -10z"/>
<path d="M4500 170 c0 -5 5 -10 10 -10 6 0 10 5 10 10 0 6 -4 10 -10 10 -5 0
-10 -4 -10 -10z"/>
<path d="M4540 170 c0 -5 5 -10 10 -10 6 0 10 5 10 10 0 6 -4 10 -10 10 -5 0
-10 -4 -10 -10z"/>
<path d="M4940 170 c0 -5 5 -10 10 -10 6 0 10 5 10 10 0 6 -4 10 -10 10 -5 0
-10 -4 -10 -10z"/>
<path d="M5592 165 c-11 -13 -9 -19 12 -40 14 -14 32 -25 41 -25 11 0 15 -12
15 -50 0 -27 5 -50 10 -50 6 0 10 23 10 50 0 47 2 50 25 50 26 0 82 46 71 57
-3 4 -14 -4 -25 -15 -20 -24 -66 -29 -75 -9 -5 10 -7 10 -12 0 -8 -18 -32 -16
-52 4 -12 12 -13 18 -4 21 13 4 17 22 5 22 -5 -1 -14 -7 -21 -15z"/>
<path d="M4620 150 c0 -5 5 -10 10 -10 6 0 10 5 10 10 0 6 -4 10 -10 10 -5 0
-10 -4 -10 -10z"/>
<path d="M4680 150 c0 -5 5 -10 10 -10 6 0 10 5 10 10 0 6 -4 10 -10 10 -5 0
-10 -4 -10 -10z"/>
<path d="M4740 150 c0 -5 5 -10 10 -10 6 0 10 5 10 10 0 6 -4 10 -10 10 -5 0
-10 -4 -10 -10z"/>
<path d="M4800 150 c0 -5 5 -10 10 -10 6 0 10 5 10 10 0 6 -4 10 -10 10 -5 0
-10 -4 -10 -10z"/>
<path d="M4880 150 c0 -5 5 -10 10 -10 6 0 10 5 10 10 0 6 -4 10 -10 10 -5 0
-10 -4 -10 -10z"/>
<path d="M5700 150 c0 -5 5 -10 10 -10 6 0 10 5 10 10 0 6 -4 10 -10 10 -5 0
-10 -4 -10 -10z"/>
<path d="M5880 150 c0 -5 5 -10 10 -10 6 0 10 5 10 10 0 6 -4 10 -10 10 -5 0
-10 -4 -10 -10z"/>
<path d="M4400 130 c0 -5 5 -10 10 -10 6 0 10 5 10 10 0 6 -4 10 -10 10 -5 0
-10 -4 -10 -10z"/>
<path d="M4440 130 c0 -5 5 -10 10 -10 6 0 10 5 10 10 0 6 -4 10 -10 10 -5 0
-10 -4 -10 -10z"/>
<path d="M4480 130 c0 -5 5 -10 10 -10 6 0 10 5 10 10 0 6 -4 10 -10 10 -5 0
-10 -4 -10 -10z"/>
<path d="M4580 130 c0 -5 5 -10 10 -10 6 0 10 5 10 10 0 6 -4 10 -10 10 -5 0
-10 -4 -10 -10z"/>
<path d="M5920 130 c0 -5 5 -10 10 -10 6 0 10 5 10 10 0 6 -4 10 -10 10 -5 0
-10 -4 -10 -10z"/>
<path d="M5960 130 c0 -5 9 -10 20 -10 11 0 20 5 20 10 0 6 -9 10 -20 10 -11
0 -20 -4 -20 -10z"/>
<path d="M4540 110 c0 -5 5 -10 10 -10 6 0 10 5 10 10 0 6 -4 10 -10 10 -5 0
-10 -4 -10 -10z"/>
<path d="M4720 110 c0 -5 5 -10 10 -10 6 0 10 5 10 10 0 6 -4 10 -10 10 -5 0
-10 -4 -10 -10z"/>
<path d="M4820 110 c0 -5 5 -10 10 -10 6 0 10 5 10 10 0 6 -4 10 -10 10 -5 0
-10 -4 -10 -10z"/>
<path d="M5840 110 c0 -5 5 -10 10 -10 6 0 10 5 10 10 0 6 -4 10 -10 10 -5 0
-10 -4 -10 -10z"/>
<path d="M4620 90 c0 -5 5 -10 10 -10 6 0 10 5 10 10 0 6 -4 10 -10 10 -5 0
-10 -4 -10 -10z"/>
<path d="M4920 90 c0 -5 5 -10 10 -10 6 0 10 5 10 10 0 6 -4 10 -10 10 -5 0
-10 -4 -10 -10z"/>
<path d="M5751 84 c-18 -21 -6 -30 14 -11 8 9 15 18 15 21 0 11 -15 5 -29 -10z"/>
<path d="M5960 80 c0 -13 7 -20 20 -20 24 0 25 6 6 26 -20 19 -26 18 -26 -6z"/>
<path d="M4520 70 c0 -5 5 -10 10 -10 6 0 10 5 10 10 0 6 -4 10 -10 10 -5 0
-10 -4 -10 -10z"/>
<path d="M4560 70 c0 -5 5 -10 10 -10 6 0 10 5 10 10 0 6 -4 10 -10 10 -5 0
-10 -4 -10 -10z"/>
<path d="M4720 70 c0 -5 5 -10 10 -10 6 0 10 5 10 10 0 6 -4 10 -10 10 -5 0
-10 -4 -10 -10z"/>
<path d="M4840 70 c0 -5 5 -10 10 -10 6 0 10 5 10 10 0 6 -4 10 -10 10 -5 0
-10 -4 -10 -10z"/>
<path d="M5791 64 c-18 -21 -6 -30 14 -11 8 9 15 18 15 21 0 11 -15 5 -29 -10z"/>
<path d="M5851 64 c-18 -21 -6 -30 14 -11 8 9 15 18 15 21 0 11 -15 5 -29 -10z"/>
<path d="M5920 70 c0 -5 5 -10 10 -10 6 0 10 5 10 10 0 6 -4 10 -10 10 -5 0
-10 -4 -10 -10z"/>
<path d="M4660 50 c0 -5 5 -10 10 -10 6 0 10 5 10 10 0 6 -4 10 -10 10 -5 0
-10 -4 -10 -10z"/>
<path d="M4780 50 c0 -5 5 -10 10 -10 6 0 10 5 10 10 0 6 -4 10 -10 10 -5 0
-10 -4 -10 -10z"/>
<path d="M5600 50 c0 -5 5 -10 10 -10 6 0 10 5 10 10 0 6 -4 10 -10 10 -5 0
-10 -4 -10 -10z"/>
</g>
</svg>
